<svg xmlns="http://www.w3.org/2000/svg" width="267" height="176" fill="none"><path stroke="#FFC8B9" stroke-miterlimit="10" d="M43.932 54.43s6.52 27.382 5.244 45.551c-1.277 18.169 2.214 28.171 2.214 28.171"/><path fill="#FFF0EC" d="M40.472 57.896c13.495 0 24.435-10.98 24.435-24.523 0-13.544-10.94-24.524-24.435-24.524S16.037 19.83 16.037 33.373c0 13.543 10.94 24.523 24.435 24.523Z"/><path fill="#FFC8B9" d="M26.419 33.365c.854 4.694 5.19 7.219 11.756 11.048 1.118.645 2.38 1.38 3.702 2.177.177.1.382.137.582.106a.86.86 0 0 0 .499-.304c.96-1.213 1.881-2.343 2.697-3.351 4.806-5.9 7.979-9.797 7.133-14.491-.756-4.353-4.398-7.075-8.387-6.347a6.334 6.334 0 0 0-3.657 2.062 9.184 9.184 0 0 0-1.783 3.17 9.007 9.007 0 0 0-2.78-2.335 6.267 6.267 0 0 0-4.141-.638c-3.99.744-6.407 4.566-5.621 8.903Z"/><path stroke="#FFC8B9" stroke-miterlimit="10" d="M224.48 48.728s-.99 28.14 3.838 45.695c4.828 17.554 3.393 28.057 3.393 28.057"/><path fill="#F4A28C" d="m93.33 92.64-14.143 20.831-27.91-7.31s-11.666.22-9.898 5.096c1.768 4.876 10.82.887 10.82.887l35.382 13.247 18.685-12.807-12.935-19.943Z"/><path fill="#CE8172" d="m93.33 92.64-14.143 20.831-27.91-7.31s-11.666.22-9.898 5.096c1.768 4.876 10.82.887 10.82.887l35.382 13.247 18.685-12.807-12.935-19.943Z" opacity=".31"/><g filter="url(#a)" opacity=".7"><path fill="#fff" d="M133.3 156.701c63.068 0 114.194-6.515 114.194-14.551 0-8.037-51.126-14.552-114.194-14.552-63.068 0-114.195 6.515-114.195 14.552 0 8.036 51.127 14.551 114.195 14.551Z"/></g><path fill="#4D5DB5" d="M136.322 60.535s-21.533 24.902-19.35 45.444c2.184 20.542 19.35 35.193 19.35 35.193h7.329s-21.307-36.035-1.171-53.043c20.135-17.009-6.158-27.594-6.158-27.594Z"/><path fill="#fff" d="M136.322 60.535s-21.533 24.902-19.35 45.444c2.184 20.542 19.35 35.193 19.35 35.193h7.329s-21.307-36.035-1.171-53.043c20.135-17.009-6.158-27.594-6.158-27.594Z" opacity=".46"/><path fill="#F4A28C" d="M182.894 30.908s-1.216 6.332-3.422 10.138a3.218 3.218 0 0 1-3.229 1.578 3.202 3.202 0 0 1-1.191-.417c-1.897-1.138-4.133-3.23-3.892-6.704l-.302-5.937s-.068-3.73 4.126-5.247c4.193-1.517 8.847 2.775 7.91 6.589Z"/><path fill="#F4A28C" d="m170.911 30.643-8.878 19.147 10.865 4.155 2.093-15.606-4.08-7.696Z"/><path fill="#120600" d="M181.292 30.734a25.42 25.42 0 0 1-5.568-2.07 5.384 5.384 0 0 1-1.609 5.672 4.36 4.36 0 0 1-5.546.227l2.342-7.932a6.597 6.597 0 0 1 1.745-3.018 6.55 6.55 0 0 1 3.038-1.698 24.139 24.139 0 0 1 3.022-.539c2.539-.265 5.455 2.214 7.941 1.259a1.542 1.542 0 0 1 1.515.214 1.551 1.551 0 0 1 .593 1.416c-.333 2.526-1.844 6.21-5.485 6.605a6.268 6.268 0 0 1-1.988-.136Z"/><path fill="#F4A28C" d="M174.825 34.343s.635-2.404-1.209-2.73c-1.844-.326-2.765 3.132-.431 4.148l1.64-1.418ZM181.92 34.882l1.042 2.881a1.03 1.03 0 0 1-1.058 1.38l-2.485-.235 2.501-4.026Z"/><path fill="#CE8172" d="M174.689 41.774a7.626 7.626 0 0 1-3.022-3.192s-.899 3.791 2.13 8.591l.892-5.399Z" opacity=".31"/><path fill="#120600" d="M91.978 48.956s-12.346 16.864.181 21.99c12.528 5.126 13.6-13.543 13.6-13.543l-5.651-12.527-8.13 4.08Z"/><path fill="#F4A28C" d="M88.805 37.619s.234 6.34 1.805 10.381a3.187 3.187 0 0 0 1.691 1.759 3.164 3.164 0 0 0 2.435.038c2.017-.826 4.533-2.525 4.79-5.937l1.194-5.733s.619-3.617-3.234-5.725c-3.853-2.108-9.021 1.365-8.681 5.217Z"/><path fill="#4D5DB5" d="m95.068 61.535 10.692-4.14s18.828 2.715 23.732 25.024c4.903 22.309 0 47.333 0 47.333l-30.268-1.517s4.586-14.408-4.45-20.064c-9.037-5.657-22.803-18.692.294-46.636Z"/><path fill="#F4A28C" d="m100.501 39.166 5.765 19.973-11.197 2.397.302-15.492 5.13-6.878Z"/><path fill="#F4A28C" d="M96.11 42.176s-.256-2.434 1.58-2.472c1.836-.038 2.267 3.466-.196 4.103l-1.383-1.63ZM89.153 41.608l-1.444 2.638a1.018 1.018 0 0 0 .824 1.517l2.456.152-1.837-4.307Z"/><path fill="#CE8172" d="M95.167 49.433a7.49 7.49 0 0 0 3.392-2.654s.31 3.792-3.355 8.03l-.037-5.376Z" opacity=".31"/><path fill="#120600" d="M87.34 28.36c-3.19 2.812-2.32 7.984 1.457 9.94a17.168 17.168 0 0 0 4.662 1.517c6.8 1.312 3.453 31.355 17.778 27.124 14.326-4.231 9.717-10.464 3.219-16.053-6.498-5.589-9.225-15.977-11.711-21.232-1.806-3.769-11.054-5.149-15.406-1.297Z"/><path fill="#000" d="M111.426 63.894s14.703 16.607 14.522 38.332c-.181 21.725-6.415 29.641-6.415 29.641l-20.316-3.602 12.209-64.371Z" opacity=".08"/><path fill="#4D5DB5" d="m162.033 49.79 10.865 4.155s20.204 12.891 13.351 33.433-16.154 45.498-16.154 45.498l-30.789-4.724s-30.041-81.585 22.727-78.362Z"/><path fill="#103150" d="m139.684 127.841 49.927-16.963a12.799 12.799 0 0 1 9.712.636 12.873 12.873 0 0 1 6.48 7.288l7.072 20.239-7.035 1.88-6.089-12.132a6.715 6.715 0 0 0-7.299-3.613 6.712 6.712 0 0 0-2.652 1.156c-13.509 9.858-44.661 29.065-50.116 1.509Z"/><path fill="#103150" d="M177.379 127.841s27.048-1.517 29.156 6.225c2.108 7.743-46.051 7.341-46.051 7.341l16.895-13.566Z"/><path fill="#F4A28C" d="M182.894 138.328a2.516 2.516 0 0 1 2.267-1.471c3.989-.068 14.015.182 12.958 4.55-.967 4.003-9.339 1.797-13.714.348a2.514 2.514 0 0 1-1.511-3.435v.008Z"/><path fill="#000" d="M152.634 65.972s-14.469 11.609-4.057 31.992c10.411 20.383 6.8 24.523 6.8 24.523l17.982-6.112-1.564-17.736-18.352-32.667h-.809Z" opacity=".08"/><path fill="#F4A28C" d="m206.604 140.717.506 1.653a2.8 2.8 0 0 0 1.01 1.426c.48.355 1.061.546 1.657.545h7.064a1.508 1.508 0 0 0 1.345-.987 1.523 1.523 0 0 0-.378-1.629 12.314 12.314 0 0 0-5.749-2.464l-5.455 1.456Z"/><path fill="#103150" d="m129.922 127.841-49.927-16.963a12.798 12.798 0 0 0-9.712.636 12.872 12.872 0 0 0-6.48 7.288l-7.072 20.239 7.035 1.88 6.09-12.132a6.736 6.736 0 0 1 4.404-3.516 6.702 6.702 0 0 1 5.523 1.082c13.532 9.835 44.684 29.042 50.139 1.486Z"/><path fill="#103150" d="M92.228 127.841s-27.05-1.517-29.157 6.225c-2.108 7.743 46.088 7.341 46.088 7.341l-16.931-13.566Z"/><path fill="#F4A28C" d="M86.712 138.328a2.492 2.492 0 0 0-2.267-1.471c-3.989-.068-14.015.182-12.957 4.55.967 4.003 9.346 1.797 13.713.348a2.51 2.51 0 0 0 1.511-3.435v.008ZM63.003 140.717l-.507 1.653a2.8 2.8 0 0 1-1.01 1.426c-.48.355-1.06.546-1.657.545h-7.064a1.511 1.511 0 0 1-1.4-1.858 1.52 1.52 0 0 1 .433-.758 12.314 12.314 0 0 1 5.75-2.464l5.455 1.456Z"/><path fill="#4D5DB5" d="M154.674 61.346a10.588 10.588 0 0 1 5.825-5.05c2.504-.889 5.25-.8 7.692.25 5.531 2.373 11.568 7.773 11.439 20.042a91.853 91.853 0 0 0 4.292 29.277c.304.92.805 1.761 1.468 2.465a6.593 6.593 0 0 0 5.196 2.059 6.58 6.58 0 0 0 2.75-.793l28.711-15.643 4.027 7.583-34.657 23.438a11.908 11.908 0 0 1-15.073-1.402c-12.233-12.103-34.325-38.59-21.67-62.226Z"/><path fill="#fff" d="M154.674 61.346a10.588 10.588 0 0 1 5.825-5.05c2.504-.889 5.25-.8 7.692.25 5.531 2.373 11.568 7.773 11.439 20.042a91.853 91.853 0 0 0 4.292 29.277c.304.92.805 1.761 1.468 2.465a6.593 6.593 0 0 0 5.196 2.059 6.58 6.58 0 0 0 2.75-.793l28.711-15.643 4.027 7.583-34.657 23.438a11.908 11.908 0 0 1-15.073-1.402c-12.233-12.103-34.325-38.59-21.67-62.226Z" opacity=".46"/><path fill="#F4A28C" d="M222.024 93.953s9.112-6.218 11.795 0c2.682 6.218-7.767 7.583-7.767 7.583l-4.028-7.583ZM136.322 141.172s8.311-5.18 10.691-1.911c2.38 3.268-.741 5.262-10.691 1.911ZM102.292 63.052s-10.314 3.033-7.125 12.338c2.266 6.635 4.11 24.06 4.971 33.425a4.68 4.68 0 0 1-3.368 4.93 4.659 4.659 0 0 1-2.132.098l-18.406-4.861a12.789 12.789 0 0 0-6.225-.159 12.825 12.825 0 0 0-5.569 2.798c-1.715 1.516-2.742 3.397-1.435 5.399 3.324 5.096 9.95-2.662 9.95-2.662s27.382 15.515 39.289 9.752c11.908-5.763 13.872-64.493-9.95-61.058Z"/><path fill="#FFF0EC" d="M223.717 51.928c13.495 0 24.435-10.98 24.435-24.523 0-13.544-10.94-24.523-24.435-24.523s-24.435 10.979-24.435 24.523 10.94 24.523 24.435 24.523Z"/><path fill="#FFC8B9" d="M230.23 17.009a6.321 6.321 0 0 0-3.937 1.448 9.103 9.103 0 0 0-2.266 2.843 8.865 8.865 0 0 0-2.373-2.752 6.308 6.308 0 0 0-3.982-1.304c-4.057.083-7.056 3.473-6.973 7.886.09 4.777 3.974 7.962 9.822 12.8.997.819 2.131 1.744 3.302 2.737a.843.843 0 0 0 1.103 0c1.141-1.039 2.266-2.017 3.196-2.874 5.689-5.05 9.444-8.386 9.354-13.164-.076-4.428-3.189-7.704-7.246-7.62Z"/><defs><filter id="a" width="266.389" height="67.103" x=".105" y="108.598" color-interpolation-filters="sRGB" filterUnits="userSpaceOnUse"><feFlood flood-opacity="0" result="BackgroundImageFix"/><feBlend in="SourceGraphic" in2="BackgroundImageFix" result="shape"/><feGaussianBlur result="effect1_foregroundBlur_118_6797" stdDeviation="9.5"/></filter></defs></svg>