<svg xmlns="http://www.w3.org/2000/svg" width="276" height="118" fill="none"><mask id="a" fill="#fff"><path fill-rule="evenodd" d="M177.336 58.38c-9.369-9.37.931-38.996 12.412-50.477 10.757-10.757 26.627-7.3 35.996 2.069 9.368 9.368 14.067 23.997 2.068 35.995-5.363 5.363-13.428 10.05-21.682 13.002 8.981 3.006 17.776 7.916 22.923 13.064 10.758 10.757 7.3 26.627-2.068 35.995-9.369 9.369-23.997 14.067-35.996 2.069-12.825-12.826-21.78-41.108-12.412-50.476l.108-.106a10.44 10.44 0 0 1-1.349-1.136Z" clip-rule="evenodd"/></mask><path fill="#fff" fill-rule="evenodd" d="M177.336 58.38c-9.369-9.37.931-38.996 12.412-50.477 10.757-10.757 26.627-7.3 35.996 2.069 9.368 9.368 14.067 23.997 2.068 35.995-5.363 5.363-13.428 10.05-21.682 13.002 8.981 3.006 17.776 7.916 22.923 13.064 10.758 10.757 7.3 26.627-2.068 35.995-9.369 9.369-23.997 14.067-35.996 2.069-12.825-12.826-21.78-41.108-12.412-50.476l.108-.106a10.44 10.44 0 0 1-1.349-1.136Z" clip-rule="evenodd"/><path fill="#FFC8B9" d="m206.13 58.969-.674-1.883-5.44 1.946 5.479 1.834.635-1.897Zm-27.445.546 1.391 1.437 1.731-1.676-1.965-1.393-1.157 1.632Zm9.649-53.026c-6.052 6.051-11.634 16.668-14.535 26.899-1.456 5.136-2.272 10.297-2.089 14.847.182 4.515 1.365 8.712 4.212 11.559l2.828-2.829c-1.837-1.837-2.88-4.857-3.043-8.891-.161-3.998.558-8.718 1.941-13.595 2.777-9.794 8.085-19.732 13.514-25.162l-2.828-2.828Zm38.824 2.069c-9.852-9.852-27.018-13.875-38.824-2.07l2.828 2.83c9.709-9.71 24.282-6.817 33.167 2.068l2.829-2.828Zm2.068 38.823c6.431-6.43 8.477-13.704 7.547-20.663-.918-6.87-4.706-13.251-9.615-18.16l-2.829 2.828c4.46 4.46 7.706 10.076 8.479 15.862.762 5.698-.842 11.737-6.41 17.305l2.828 2.828Zm-22.423 13.471c8.457-3.025 16.801-7.848 22.423-13.47l-2.828-2.829c-5.103 5.103-12.889 9.652-20.942 12.533l1.347 3.766Zm23.665 9.767c-5.435-5.436-14.537-10.478-23.703-13.547l-1.27 3.793c8.796 2.945 17.284 7.722 22.144 12.582l2.829-2.828Zm-2.069 38.823c9.852-9.852 13.875-27.018 2.069-38.823l-2.829 2.828c9.709 9.709 6.817 24.282-2.068 33.167l2.828 2.828Zm-38.824 2.069c6.431 6.431 13.705 8.477 20.663 7.547 6.87-.919 13.252-4.707 18.161-9.616l-2.828-2.828c-4.46 4.46-10.076 7.705-15.863 8.479-5.697.761-11.736-.842-17.304-6.41l-2.829 2.828Zm-12.412-53.305c-2.815 2.816-4.103 6.888-4.398 11.317-.296 4.454.391 9.498 1.765 14.563 2.741 10.103 8.334 20.714 15.045 27.425l2.829-2.828c-6.115-6.115-11.413-16.058-14.013-25.644-1.297-4.78-1.893-9.364-1.635-13.25.26-3.91 1.367-6.885 3.235-8.754l-2.828-2.829Zm.131-.128a9.36 9.36 0 0 0-.131.128l2.828 2.829.085-.083-2.782-2.874Zm-1.372 1.716c.497.496 1.034.947 1.606 1.352l2.314-3.263a8.472 8.472 0 0 1-1.092-.918l-2.828 2.829Z" mask="url(#a)"/><path fill="#FFC8B9" fill-rule="evenodd" d="M150.215 58.38c-9.368-9.37.931-38.996 12.413-50.477 10.757-10.757 26.626-7.3 35.995 2.069 9.369 9.368 14.067 23.997 2.069 35.995-5.363 5.363-13.428 10.05-21.683 13.002 8.981 3.006 17.776 7.916 22.924 13.064 10.757 10.757 7.3 26.627-2.069 35.995-9.368 9.369-23.997 14.067-35.995 2.069-12.826-12.826-21.781-41.108-12.412-50.476l.107-.106a10.508 10.508 0 0 1-1.349-1.136Z" clip-rule="evenodd"/><mask id="b" fill="#fff"><path fill-rule="evenodd" d="M123.095 58.38c-9.368-9.37.931-38.996 12.413-50.477 10.757-10.757 26.626-7.3 35.995 2.069 9.368 9.368 14.067 23.997 2.069 35.995-5.363 5.363-13.428 10.05-21.683 13.002 8.981 3.006 17.776 7.916 22.924 13.064 10.757 10.757 7.3 26.627-2.069 35.995-9.369 9.369-23.997 14.067-35.995 2.069-12.826-12.826-21.781-41.108-12.412-50.476l.107-.106a10.508 10.508 0 0 1-1.349-1.136Z" clip-rule="evenodd"/></mask><path fill="#fff" fill-rule="evenodd" d="M123.095 58.38c-9.368-9.37.931-38.996 12.413-50.477 10.757-10.757 26.626-7.3 35.995 2.069 9.368 9.368 14.067 23.997 2.069 35.995-5.363 5.363-13.428 10.05-21.683 13.002 8.981 3.006 17.776 7.916 22.924 13.064 10.757 10.757 7.3 26.627-2.069 35.995-9.369 9.369-23.997 14.067-35.995 2.069-12.826-12.826-21.781-41.108-12.412-50.476l.107-.106a10.508 10.508 0 0 1-1.349-1.136Z" clip-rule="evenodd"/><path fill="#F6D3B3" d="m151.889 58.969-.674-1.883-5.439 1.946 5.478 1.834.635-1.897Zm-27.445.546 1.391 1.437 1.731-1.676-1.965-1.393-1.157 1.632Zm9.649-53.026c-6.051 6.051-11.634 16.668-14.534 26.899-1.457 5.136-2.273 10.297-2.09 14.847.183 4.515 1.365 8.712 4.212 11.559l2.829-2.829c-1.838-1.837-2.881-4.857-3.044-8.891-.161-3.998.558-8.718 1.941-13.595 2.777-9.794 8.085-19.732 13.515-25.162l-2.829-2.828Zm38.824 2.069c-9.852-9.852-27.018-13.875-38.824-2.07l2.829 2.83c9.708-9.71 24.282-6.817 33.167 2.068l2.828-2.828Zm2.069 38.823c6.43-6.43 8.476-13.704 7.546-20.663-.918-6.87-4.706-13.251-9.615-18.16l-2.828 2.828c4.459 4.46 7.705 10.076 8.478 15.862.762 5.698-.842 11.737-6.41 17.305l2.829 2.828Zm-22.423 13.471c8.456-3.025 16.8-7.848 22.423-13.47l-2.829-2.829c-5.103 5.103-12.889 9.652-20.942 12.533l1.348 3.766Zm23.664 9.767c-5.435-5.436-14.537-10.478-23.703-13.547l-1.27 3.793c8.797 2.945 17.285 7.722 22.145 12.582l2.828-2.828Zm-2.069 38.823c9.852-9.852 13.875-27.018 2.069-38.823l-2.828 2.828c9.708 9.709 6.816 24.282-2.069 33.167l2.828 2.828Zm-38.823 2.069c6.43 6.431 13.704 8.477 20.663 7.547 6.869-.919 13.251-4.707 18.16-9.616l-2.828-2.828c-4.46 4.46-10.076 7.705-15.862 8.479-5.698.761-11.737-.842-17.305-6.41l-2.828 2.828Zm-12.413-53.305c-2.815 2.816-4.103 6.888-4.398 11.317-.296 4.454.391 9.498 1.765 14.563 2.741 10.103 8.334 20.714 15.046 27.425l2.828-2.828c-6.114-6.115-11.412-16.058-14.013-25.644-1.297-4.78-1.893-9.364-1.634-13.25.26-3.91 1.366-6.885 3.235-8.754l-2.829-2.829Zm.131-.128-.131.128 2.829 2.829.084-.083-2.782-2.874Zm-1.372 1.716c.497.496 1.034.947 1.607 1.352l2.313-3.263a8.394 8.394 0 0 1-1.091-.918l-2.829 2.829Z" mask="url(#b)"/><path fill="#F6D3B3" fill-rule="evenodd" d="M96.412 27.072c-2.995-7.345-7.116-14.159-11.401-18.445-10.757-10.757-26.627-7.3-35.996 2.069-9.368 9.369-14.067 23.997-2.068 35.995 4.563 4.564 11.083 8.637 18.011 11.57-7.728 3.022-14.977 7.324-19.46 11.807-10.757 10.757-7.3 26.626 2.07 35.995 9.368 9.368 23.996 14.067 35.995 2.069 5.249-5.25 9.85-13.088 12.811-21.159 2.935 8.503 7.736 16.882 13.254 22.4 11.999 11.998 26.627 7.3 35.996-2.069 9.368-9.368 12.826-25.238 2.068-35.995-5.147-5.148-13.942-10.058-22.923-13.064 8.254-2.953 16.319-7.64 21.682-13.002 11.999-11.998 7.3-26.627-2.069-35.995-9.368-9.369-25.238-12.826-35.995-2.069-4.566 4.566-8.945 12.002-11.975 19.893Z" clip-rule="evenodd"/><path fill="#fff" d="M80.174 42.242c9.353 8.728 23.896 8.627 33.127-.23-8.728 9.353-8.627 23.895.23 33.126-9.353-8.728-23.896-8.627-33.126.23 8.727-9.353 8.626-23.895-.23-33.126Z"/></svg>