<svg xmlns="http://www.w3.org/2000/svg" width="311" height="160" fill="none"><path fill="#F6D3B3" d="M155.202 160c85.716 0 155.203-19.886 155.203-44.417 0-24.531-69.487-44.417-155.203-44.417C69.487 71.166 0 91.052 0 115.583 0 140.114 69.487 160 155.202 160Z" opacity=".3"/><path fill="#F4A28C" d="M118.172 9.15s.662 3.204.373 5.398a1.63 1.63 0 0 1-1.207 1.369 1.635 1.635 0 0 1-.639.038c-1.097-.16-2.56-.702-3.134-2.37l-1.313-2.694s-.757-1.73.914-3.262 4.699-.446 5.006 1.521Z"/><path fill="#F4A28C" d="m112.498 11.373-.424 10.69 5.906-.191-2.063-7.701-3.419-2.797Z"/><path fill="#120600" d="M117.372 9.38c-.996.157-2.007.2-3.013.125a2.72 2.72 0 0 1 .365 2.966 2.214 2.214 0 0 1-2.559 1.192l-.439-4.169a3.32 3.32 0 0 1 1.324-3.141c.417-.31.854-.593 1.309-.845 1.141-.625 2.991-.033 3.971-.969a.79.79 0 0 1 1.302.366c.336 1.243.347 3.265-1.284 4.161a3.18 3.18 0 0 1-.976.315Z"/><path fill="#F4A28C" d="M115.058 12.354s-.172-1.247-1.097-1.039c-.925.209-.688 2.008.607 2.026l.49-.987ZM118.487 11.187l1.05 1.14a.528.528 0 0 1 .12.49.517.517 0 0 1-.347.364l-1.214.365.391-2.359Z"/><path fill="#CE8172" d="M116.44 15.838a3.884 3.884 0 0 1-2.033-.906s.315 1.934 2.677 3.598l-.644-2.692Z" opacity=".31"/><path fill="#FFC8B9" d="M96.89 22.537s-21.481 3.63-20.485 18.615c.79 11.918-5.364 34.772 23.785 33.465 29.149-1.307 42.906-2.931 36.034-25.235C129.352 27.08 96.89 22.537 96.89 22.537Z"/><path fill="#000" d="M87.45 30.308a8.496 8.496 0 0 0 3.882 8.715c3.954 2.588 10.036 11.867 14.766 16.558a7.73 7.73 0 0 1 2.303 5.59 3.382 3.382 0 0 0 1.456 2.692c3.281 2.679 17.043 4.025 24.737-4.225 7.693-8.25-2.446-12.333-2.446-12.333L98.793 24.212c1.151-.608-9.978 1.592-11.343 6.096Z" opacity=".09"/><path fill="#F4A28C" d="M147.597 71.524c.16.433.399.82.702 1.13.303.312.66.54 1.048.67 1.247.331 1.924 2.127-.803 1.833-2.727-.294-4.225.21-3.831-1.544.395-1.753.211-2.016.211-2.016l2.673-.073ZM134.558 72.353c.089.46.265.892.514 1.263.249.372.565.674.926.884 1.171.594 1.561 2.5-1.077 1.633-2.637-.866-4.185-.698-3.525-2.336.659-1.638.524-1.937.524-1.937l2.638.493Z"/><path fill="#103150" d="M131.674 48.104s16.672.2 16.511 23.472l-3.938.777s-.754-24.57-22.428-12.867l1.131-9.681 8.724-1.701Z"/><path fill="#000" d="M131.674 48.104s16.672.2 16.511 23.472l-3.938.777s-.754-24.57-22.428-12.867l1.131-9.681 8.724-1.701Z" opacity=".09"/><path fill="#F4A28C" d="M129.017 31.03c2.922 3.534 3.889 7.548 6.959 11.03l-6.387 4.986s-.013-4.975-4.736-3.112c-4.723 1.864 2.506-8.283 2.506-8.283l1.658-4.62Z"/><path fill="#4D5DB5" d="M116.644 25.33c-.44 4.942.436 12.354 7.912 17.673l7.157-9.148s-3.66-7.799-9.803-11.856a2.806 2.806 0 0 0-1.619-.437 3.427 3.427 0 0 0-1.71.546 4.182 4.182 0 0 0-1.336 1.382 4.27 4.27 0 0 0-.601 1.84Z"/><path fill="#fff" d="M116.644 25.33c-.44 4.942.436 12.354 7.912 17.673l7.157-9.148s-3.66-7.799-9.803-11.856a2.806 2.806 0 0 0-1.619-.437 3.427 3.427 0 0 0-1.71.546 4.182 4.182 0 0 0-1.336 1.382 4.27 4.27 0 0 0-.601 1.84Z" opacity=".46"/><path fill="#4D5DB5" d="M104.442 27.346c.733-2.285 2.063-4.24 3.801-5.588 1.738-1.348 3.796-2.02 5.879-1.92l1.592.063s11.192-.057 12.039 11.87c.848 11.928-3.759 21.378-3.759 21.378l-15.039.64s-7.76-15.922-4.513-26.443Z"/><path fill="#000" d="M112.02 26.033s2.144 8.852 1.345 17.43c-.798 8.578 1.301 10.085 1.301 10.085l-5.723.241s-1.7-3.444-2.162-5.25c-.462-1.805-2.934-22.164 5.239-22.506Z" opacity=".08"/><path fill="#4D5DB5" d="M106.852 22.83c-3.463 3.098-7.796 9.167-7.051 19.85l9.976.121s3.014-8.924 2.184-17.466a4.12 4.12 0 0 0-.625-1.796 3.32 3.32 0 0 0-1.31-1.187 2.773 2.773 0 0 0-1.642-.26 2.961 2.961 0 0 0-1.532.739Z"/><path fill="#fff" d="M106.852 22.83c-3.463 3.098-7.796 9.167-7.051 19.85l9.976.121s3.014-8.924 2.184-17.466a4.12 4.12 0 0 0-.625-1.796 3.32 3.32 0 0 0-1.31-1.187 2.773 2.773 0 0 0-1.642-.26 2.961 2.961 0 0 0-1.532.739Z" opacity=".46"/><path fill="#F4A28C" d="M100.743 42.691s-.256 15.808 3.637 24.9l2.126-.372s-1.758-15.13 1.759-24.433l-7.522-.095Z"/><path fill="#F4A28C" d="M104.38 67.591s.919 5.198 3.301 3.303c2.382-1.895-1.175-3.675-1.175-3.675l-2.126.373Z"/><path fill="#103150" d="M109.112 54.236s12.56-13.844 24.195-13.77c11.635.073 2.691 33.782 2.691 33.782l-3.844-1.827s-.448-16.453-1.902-20.627c-1.453-4.173-7.248 23.373-21.14 2.442Z"/><path fill="#FFC8B9" d="M205.117 23.168s25.295 4.274 24.121 21.919c-.929 14.034 6.316 40.943-28.006 39.404-34.323-1.539-50.521-3.451-42.43-29.713 8.092-26.262 46.315-31.61 46.315-31.61Z"/><path fill="#000" d="M216.233 32.318a10.004 10.004 0 0 1-4.571 10.262c-4.655 3.048-11.817 13.973-17.387 19.497a9.1 9.1 0 0 0-2.712 6.582 3.98 3.98 0 0 1-1.714 3.17c-3.863 3.154-20.068 4.739-29.127-4.975-9.058-9.714 2.88-14.522 2.88-14.522l39.275-27.191c-1.356-.716 11.748 1.874 13.356 7.177Z" opacity=".09"/><path fill="#F4A28C" d="M145.411 80.849c-.188.51-.47.965-.826 1.331a3.103 3.103 0 0 1-1.234.79c-1.468.389-2.266 2.503.945 2.157 3.211-.347 4.976.247 4.511-1.818-.465-2.064-.248-2.374-.248-2.374l-3.148-.086ZM160.764 81.826a4.061 4.061 0 0 1-.605 1.487 3.367 3.367 0 0 1-1.091 1.04c-1.378.7-1.838 2.943 1.268 1.923s4.928-.822 4.151-2.75c-.776-1.93-.618-2.281-.618-2.281l-3.105.58Z"/><path fill="#103150" d="M164.16 53.273s-19.631.234-19.441 27.638l4.637.915s.887-28.93 26.408-15.152l-1.331-11.399-10.273-2.002Z"/><path fill="#000" d="M164.16 53.273s-19.631.234-19.441 27.638l4.637.915s.887-28.93 26.408-15.152l-1.331-11.399-10.273-2.002Z" opacity=".09"/><path fill="#F4A28C" d="M164.868 28.243s-6.998 4.204-9.396 2.281c-2.398-1.922-3.079-12.623-3.079-12.623l-3.286.853s-1.262 21.142 4.3 23.336c5.561 2.195 15.242-3.418 15.242-3.418l-3.781-10.429Z"/><path fill="#4D5DB5" d="M183.992 28.23c-2.308 5.366-7.363 12.556-18.084 13.885l-2.298-13.482s8.155-6.034 16.79-6.8a3.302 3.302 0 0 1 1.922.452 4.03 4.03 0 0 1 1.466 1.523 4.93 4.93 0 0 1 .612 2.18 5.038 5.038 0 0 1-.408 2.243Z"/><path fill="#fff" d="M183.992 28.23c-2.308 5.366-7.363 12.556-18.084 13.885l-2.298-13.482s8.155-6.034 16.79-6.8a3.302 3.302 0 0 1 1.922.452 4.03 4.03 0 0 1 1.466 1.523 4.93 4.93 0 0 1 .612 2.18 5.038 5.038 0 0 1-.408 2.243Z" opacity=".46"/><path fill="#F4A28C" d="M152.229 17.945c.164-.044.328-4.13-.095-3.753a2.37 2.37 0 0 0-.576 1.144s0-2.893-1.273-2.572c-1.272.322-1.705 3.654-1.204 5.99l3.127-.674M180.462 5.16s-2.418 10.335 2.244 10.425c4.661.09 3.475-10.425 3.475-10.425h-5.719Z"/><path fill="#120600" d="M178.685 5.835s-.497 2.06 2.452 2.258c1.721.119 3.447.119 5.168 0 0 0 3.559-1.176 1.598-4.413-1.96-3.237-2.09.392-4.328-2.358-2.239-2.75-4.255-.665-3.739 1.335.517 2.001-2.407.497-1.151 3.178Z"/><path fill="#F4A28C" d="m185.381 13.649.923 6.607s1.698 2.746-1.837 3.337c-3.534.59-4.805-.884-2.546-3.237l.585-6.707h2.875ZM186.304 8.094s2.482.034 2.19 2.273c-.293 2.24-3.143 0-3.143 0l.953-2.273Z"/><path fill="#CE8172" d="M182.338 15.595s1.226.054 2.849-1.281c0 0-.054 2.547-3.018 3.192l.169-1.911Z" opacity=".31"/><path fill="#4D5DB5" d="M196.225 28.83c-.863-2.69-2.43-4.992-4.476-6.58-2.047-1.587-4.469-2.378-6.922-2.26l-1.875.075s-13.177-.068-14.176 13.977c-.998 14.044 4.426 25.171 4.426 25.171l17.709.754s9.138-18.749 5.314-31.137Z"/><path fill="#000" d="M187.304 27.285s-2.525 10.422-1.585 20.523c.94 10.1-1.531 11.875-1.531 11.875l6.739.284s2.001-4.055 2.545-6.181c.544-2.127 3.455-26.1-6.168-26.501Z" opacity=".08"/><path fill="#4D5DB5" d="M193.388 23.514c4.077 3.647 9.179 10.793 8.302 23.373l-11.746.142s-3.549-10.509-2.572-20.566a4.836 4.836 0 0 1 .736-2.114c.4-.617.932-1.1 1.542-1.398a3.268 3.268 0 0 1 1.934-.306 3.49 3.49 0 0 1 1.804.87Z"/><path fill="#fff" d="M193.388 23.514c4.077 3.647 9.179 10.793 8.302 23.373l-11.746.142s-3.549-10.509-2.572-20.566a4.836 4.836 0 0 1 .736-2.114c.4-.617.932-1.1 1.542-1.398a3.268 3.268 0 0 1 1.934-.306 3.49 3.49 0 0 1 1.804.87Z" opacity=".46"/><path fill="#F4A28C" d="M200.581 46.9s.301 18.612-4.283 29.319l-2.504-.44s2.071-17.815-2.07-28.768l8.857-.112Z"/><path fill="#F4A28C" d="M196.299 76.219s-1.083 6.12-3.888 3.888c-2.804-2.231 1.384-4.327 1.384-4.327l2.504.439Z"/><path fill="#103150" d="M190.726 60.493s-14.788-16.301-28.488-16.215c-13.701.087-3.169 39.78-3.169 39.78l4.526-2.152s.528-19.373 2.24-24.288c1.711-4.914 8.534 27.52 24.891 2.875Z"/><path fill="#FFC8B9" d="M50.873 60.26s-15.907 7.675-17.979 25.242c-2.072 17.566-7.953 51.558 35.277 49.591 43.231-1.967 63.618-4.346 53.42-37.416C111.392 64.606 50.873 60.26 50.873 60.26Z"/><path fill="#000" d="M49.272 69.422a12.597 12.597 0 0 0 5.756 12.923c5.862 3.838 14.89 17.596 21.893 24.552a11.404 11.404 0 0 1 3.416 8.289 5.009 5.009 0 0 0 2.159 3.991c4.864 3.972 25.27 5.967 36.687-6.265 11.417-12.232-3.636-18.286-3.636-18.286L65.389 67.475l-16.117 1.947Z" opacity=".09"/><path fill="#F4A28C" d="M160.149 129.337a5.813 5.813 0 0 0 3.732 3.291c2.667.604 4.116 3.885-1.718 3.348-5.833-.537-9.028.384-8.193-2.821.835-3.204.461-3.684.461-3.684l5.718-.134ZM120.986 127.044a5.823 5.823 0 0 0 1.545 4.73c1.986 1.918 1.564 5.449-3.185 2.014-4.749-3.434-7.973-4.269-5.622-6.591 2.35-2.321 2.273-2.945 2.273-2.945l4.989 2.792Z"/><path fill="#103150" d="M126.051 86.538s35.661.365 35.316 42.895l-8.414 1.42s-1.612-44.9-47.97-23.515l2.418-17.692 18.65-3.108Z"/><path fill="#000" d="M126.051 86.538s35.661.365 35.316 42.895l-8.414 1.42s-1.612-44.9-47.97-23.515l2.418-17.692 18.65-3.108Z" opacity=".09"/><path fill="#FFC8B9" d="m128.882 47.366 3.09.825-2.197-2.37-.893 1.545Z"/><path fill="#F4A28C" d="M80.279 68.415s6.16 15.561 21.203 12.837c15.043-2.725 20.751-34.299 20.751-34.299s5.958-3.838 3.071-8.184c-2.888-4.346-7.561 5.018-7.561 5.018s-6.476 26.585-20.502 17.97l-16.962 6.658Z"/><path fill="#000" d="M80.279 68.415s6.16 15.561 21.203 12.837c15.043-2.725 20.751-34.299 20.751-34.299s5.958-3.838 3.071-8.184c-2.888-4.346-7.561 5.018-7.561 5.018s-6.476 26.585-20.502 17.97l-16.962 6.658Z" opacity=".09"/><path fill="#4D5DB5" d="m80.423 36.774 3.262.681s25.117 13.633 20.445 27.295c-4.672 13.662 5.536 26.633 5.536 26.633l-21.846 15.35s-28.542-14.18-24.273-53.17c0 .039 1.986-18.142 16.876-16.79Z"/><path fill="#E6E6E6" d="m138.165 44.479-4.116-1.979-16.913 35.174 4.116 1.978 16.913-35.173Z"/><path fill="#F4A28C" d="m79.233 19.639-4.519 15.945 8.97 1.861-.316-12.347-4.135-5.46Z"/><path fill="#CE8172" d="M83.55 27.803a6.034 6.034 0 0 1-2.724-2.11s-.23 3.031 2.724 6.399v-4.289Z" opacity=".31"/><path fill="#F4A28C" d="M88.52 20.109a31.406 31.406 0 0 1-1.919 8.184 2.533 2.533 0 0 1-3.367 1.266 5.612 5.612 0 0 1-3.589-4.931l-.71-4.615a4.519 4.519 0 0 1 2.811-4.423c3.214-1.525 7.167 1.497 6.774 4.519Z"/><path fill="#F4A28C" d="M82.475 23.428s.298-1.918-1.17-2.034c-1.468-.115-1.919 2.668 0 3.282l1.17-1.248ZM88.078 23.265l1.046 2.169a.806.806 0 0 1-.72 1.16h-1.976l1.65-3.329Z"/><path fill="#103150" d="m130.366 46.313-15.542-8.932-.892 1.553 15.542 8.932.892-1.553Z"/><path fill="#000" d="m92.827 98.29-5.008 8.482s-18.17-8.788-23.38-32.62C59.229 50.321 76.44 59.598 76.44 59.598L92.827 98.29Z" opacity=".18"/><path fill="#103150" d="M87.82 106.772s16.837-34.328 41.733-34.193c24.897.134-7.445 55.376-7.445 55.376l-8.251-3.338s12.223-23.707 9.096-31.335c-3.128-7.627-7.82 45.016-35.134 13.49Z"/><path fill="#F4A28C" d="M73.409 38.702s7.493-3.837 11.302 3.915c3.809 7.752.806 40.928 16.252 42.655 15.446 1.727 23.285-14.392 23.285-14.392s1.276-6.792 3.406-7.895c2.129-1.104 3.981 5.996 0 10.14 0 0-6.812 25.597-28.418 26.173-21.606.576-47.145-43.077-25.827-60.596Z"/><path fill="#103150" d="M88.559 13.566s4.921 5.756-1.459 7.004c-6.38 1.247-7.675 2.36-7.07 8.817.604 6.456 3.127 12.395-5.316 16.482-8.442 4.087-1.15 10.755-2.743 18.708-1.593 7.954-8.99 13.432-18.498 8.002-9.507-5.43-15.35-19.236-5.19-27.535s23.025-10.294 23.025-23.65c0-13.354 10.66-14.045 17.25-7.828Z"/><path fill="#4D5DB5" d="m129.28 72.748-6.311-2.406-1.357 3.559 6.311 2.406 1.357-3.559Z"/><path fill="#fff" d="m129.28 72.748-6.311-2.406-1.357 3.559 6.311 2.406 1.357-3.559Z" opacity=".44"/><path fill="#F4A28C" d="M216.643 20.284c-.203 3-.003 6.015.594 8.963a2.71 2.71 0 0 0 3.343 1.893 6.04 6.04 0 0 0 4.613-4.582l1.53-4.743a4.833 4.833 0 0 0-2.215-5.147c-3.082-2.145-7.795.323-7.865 3.616Z"/><path fill="#F4A28C" d="m225.787 23.184 5.096 16.949-9.547 2.135.131-13.193 4.32-5.89ZM216.582 23.718l-1.47 2.105a.864.864 0 0 0 .564 1.35l2.075.352-1.169-3.807Z"/><path fill="#CE8172" d="M221.477 30.828s1.228-.252 3.373-2.377c0 0 .464 3.505-3.444 6.264l.071-3.887Z" opacity=".31"/><path fill="#120600" d="M223.854 23.587a2.013 2.013 0 0 1-1.823 1.853 7.826 7.826 0 0 0-5.378 2.407c-2.366 2.88 1.642 6.435 4.804 4.522 3.162-1.914 6.385-9.064 6.385-9.064s1.923-5.76.211-8.56c-1.712-2.8-10.695-5.035-12.528 1.219-1.178 3.977 2.619 4.672 5.509 4.672a2.821 2.821 0 0 1 2.82 3.021v-.07Z"/><path fill="#F4A28C" d="M221.96 23.416s0-2.085 1.571-1.944c1.571.141 1.572 3.142-.543 3.454l-1.028-1.51Z"/><path fill="#FFC8B9" d="M256.369 43.048s35.308 5.966 33.67 30.596c-1.297 19.59 8.816 57.151-39.093 55.003-47.91-2.148-70.519-4.817-59.225-41.475 11.294-36.658 64.648-44.124 64.648-44.124Z"/><path fill="#F4A28C" d="M203.567 57.009c-4.803 5.807-8.252 11.902-11.438 18.127-3.187 6.224 4.907 10.262 4.907 10.262s5.766-5.682 7.927-10.262c1.097-2.325 2.143-6.225 2.143-6.225l-.815-4.308-2.724-7.594Z"/><path fill="#000" d="M271.885 55.82a13.96 13.96 0 0 1-6.38 14.325C259.007 74.4 249.01 89.65 241.236 97.36a12.696 12.696 0 0 0-3.786 9.188 5.545 5.545 0 0 1-2.393 4.424c-5.392 4.403-28.012 6.615-40.656-6.944-12.645-13.56 4.019-20.27 4.019-20.27l54.823-37.956c-1.893-1 16.398 2.616 18.642 10.018Z" opacity=".09"/><path fill="#F4A28C" d="M168.201 107.068a5.274 5.274 0 0 1-1.672 1.41 4.314 4.314 0 0 1-1.979.513c-2.117-.118-4.09 2.343.322 3.272 4.411.93 6.496 2.481 6.772-.461.276-2.941.697-3.257.697-3.257l-4.14-1.477ZM196.398 117.663a3.44 3.44 0 0 1-.725 1.54 4.21 4.21 0 0 1-1.438 1.116c-1.866.786-2.33 3.083 1.918 1.873 4.247-1.21 6.802-1.115 5.568-3.022-1.234-1.907-1.041-2.273-1.041-2.273l-4.282.766Z"/><path fill="#103150" d="M205.012 78.58s-26.156-8.18-37.756 28.271l5.758 3.22s13.691-38.01 41.601-8.686l3.164-15.703-12.767-7.102Z"/><path fill="#000" d="M205.012 78.58s-26.156-8.18-37.756 28.271l5.758 3.22s13.691-38.01 41.601-8.686l3.164-15.703-12.767-7.102Z" opacity=".09"/><path fill="#4D5DB5" d="M223.903 47.64c.724 8.122-.716 20.304-13.004 29.047L199.136 61.65s6.015-12.818 16.113-19.487a4.607 4.607 0 0 1 2.66-.718c.96.032 1.93.341 2.81.898a6.893 6.893 0 0 1 2.197 2.27c.559.93.9 1.975.987 3.027Z"/><path fill="#000" d="M231.504 48.795s-3.524 14.548-2.211 28.647c1.312 14.1-2.138 16.576-2.138 16.576l9.407.397s2.794-5.66 3.553-8.629c.76-2.968 4.822-36.43-8.611-36.991Z" opacity=".08"/><path fill="#4D5DB5" d="M239.997 43.532c5.692 5.09 12.813 15.065 11.59 32.625l-16.396.198s-4.955-14.669-3.591-28.708a6.762 6.762 0 0 1 1.028-2.95c.559-.861 1.301-1.535 2.153-1.952a4.557 4.557 0 0 1 2.698-.427c.916.139 1.785.557 2.518 1.214Z"/><path fill="#fff" d="M239.997 43.532c5.692 5.09 12.813 15.065 11.59 32.625l-16.396.198s-4.955-14.669-3.591-28.708a6.762 6.762 0 0 1 1.028-2.95c.559-.861 1.301-1.535 2.153-1.952a4.557 4.557 0 0 1 2.698-.427c.916.139 1.785.557 2.518 1.214Z" opacity=".46"/><path fill="#F4A28C" d="M250.039 76.174s.42 25.981-5.979 40.926l-3.495-.613s2.89-24.868-2.89-40.158l12.364-.155Z"/><path fill="#F4A28C" d="M244.06 117.1s-1.511 8.542-5.426 5.427 1.931-6.04 1.931-6.04l3.495.613Z"/><path fill="#fff" d="M223.903 47.64c.724 8.122-.716 20.304-13.004 29.047L199.136 61.65s6.015-12.818 16.113-19.487a4.607 4.607 0 0 1 2.66-.718c.96.032 1.93.341 2.81.898a6.893 6.893 0 0 1 2.197 2.27c.559.93.9 1.975.987 3.027Z" opacity=".46"/><path fill="#4D5DB5" d="M243.957 50.952c-1.204-3.755-3.391-6.969-6.247-9.184-2.857-2.216-6.238-3.32-9.662-3.155l-2.617.104s-18.394-.095-19.788 19.51c-1.393 19.604 6.178 35.135 6.178 35.135l24.72 1.053s12.754-26.17 7.416-43.463Z"/><path fill="#103150" d="M236.47 94.36s-21.896-15.649-40.983-14.776c-19.086.872-1.277 40.435-1.277 40.435l6.139-2.437s-.793-19.634 1.204-24.705c1.997-5.071 14.066 27.36 34.917 1.482Z"/><path fill="#F4A28C" d="M191.455 78.746s9.224 6.666 15.509 10.01l2.798-1.741s-10.197-8.331-6.181-14.784l-12.126 6.515Z"/><path fill="#F4A28C" d="M206.882 88.615s5.48 4.726 6.606.899c1.127-3.827-4.478-2.935-4.478-2.935l-2.128 2.036Z"/></svg>