<svg xmlns="http://www.w3.org/2000/svg" width="239" height="179" fill="none"><g filter="url(#a)"><path fill="#fff" d="M169.143 114.066c44.517 1.787 48.522 35.138-1.379 43.865-25.762 4.506-41.136-5.519-58.542-1.481-49.465 11.487-33.63-8.44-73.272-10.03-16.599-.666-27.41-23.386.315-27.702 34.177-5.312 121.047-5.128 132.878-4.652Z"/></g><path fill="#FFC8B9" d="M124.918 120.375s63.052-53.202 76.838-35.542c13.787 17.66-50.145 26.285-68.01 42.352l-8.828-6.81Z"/><path fill="#FFEBD9" d="M143.492 115.131s17.014-25.863 46.037-22.576c29.022 3.287 34.957 37.348 10.677 42.88-24.281 5.531-47.383-12.764-56.059-6.395-8.676 6.369-.655-13.909-.655-13.909Z"/><path fill="#FFC8B9" d="M206.087 119.693a.274.274 0 0 1-.261-.087c-.043-.05-4.466-5.074-13.211-8.393-5.137-1.95-10.736-2.939-16.647-2.941-7.395 0-15.3 1.548-23.495 4.61a.278.278 0 0 1-.348-.165.277.277 0 0 1 .155-.353c8.266-3.088 16.243-4.651 23.711-4.644 5.982.005 11.651 1.01 16.851 2.988 8.864 3.373 13.357 8.485 13.401 8.537a.275.275 0 0 1-.155.451l-.001-.003Z"/><path fill="#F4A28C" d="M238.023 9.824 226.778.154c-7.983 5.773-22.158 12.883-23.046 13.087-3.997.915-11.065-.663-14.944.688-3.878 1.35-12.258 3.363-15.577 3.54-4.052.213-8.559.126-8.817 1.45-.319 1.636 2.022 3.606 5.02 4.213 2.581.523 11.745.323 11.113 1.448-.632 1.125-16.162 6.58-18.966 8.118-4.479 2.46-12.693 5.879-12.066 8.384.628 2.505 3.579 2.484 8.028.905 3.645-1.294 17.065-7.246 18.332-6.555 1.267.69.087 1.137-.556 1.507-.642.37-10.436 5.944-13.477 8.206-3.04 2.262-9.9 6.58-9.636 8.844.19 1.623 1.729 3.002 4.907 1.017 3.178-1.984 13.005-7.29 16.01-9.331 2.238-1.521 5.332-3.519 5.921-2.352.282.56-16.439 12.892-18.371 15.044-1.099 1.22-.461 4.356 3.739 2.63 4.199-1.727 24.686-16.856 23.682-14.215-1.005 2.64-10.911 8.33-11.647 10.5-.737 2.17.185 3.733 5.589 1.232 5.403-2.5 20.942-10.85 24.443-14.032 2.407-2.187 8.368-8.798 11.149-11.11 2.228-1.85 13.883-6.64 20.415-9.292V9.824Z"/><path fill="#120600" d="M162.228 61.666c-1.118 0-1.654-.523-1.869-.832-.53-.753-.458-1.886.165-2.579.93-1.034 5.234-4.39 9.397-7.638 4.014-3.13 8.551-6.668 8.922-7.27a.434.434 0 0 0-.267-.182c-1.073-.279-4.092 1.772-5.379 2.647-1.734 1.179-5.634 3.386-9.403 5.519-2.706 1.53-5.262 2.976-6.609 3.817-1.989 1.242-3.222 1.11-3.903.784-.696-.335-1.154-1.036-1.258-1.922-.228-1.959 4.215-5.1 7.785-7.622.71-.5 1.379-.974 1.915-1.375 2.47-1.837 9.352-5.843 13.234-8.068l.262-.148c.079-.046.166-.092.256-.141.327-.175.775-.418.776-.625 0-.071-.061-.225-.473-.45-.197-.108-1.093-.083-4.875 1.299-2.554.933-5.616 2.177-8.318 3.282-2.125.871-3.961 1.615-5.004 1.985-3.351 1.19-5.629 1.42-6.966.703-.651-.348-1.083-.93-1.281-1.724-.531-2.117 4.534-4.68 9.003-6.94 1.141-.578 2.22-1.124 3.143-1.632 1.087-.596 3.918-1.812 7.201-3.223 4.186-1.798 9.776-4.198 11.04-5.105-1.64-.092-8.097-.474-10.341-.928-2.612-.528-4.819-2.112-5.137-3.683a1.846 1.846 0 0 1-.009-.726c.147-.754 1.258-1.141 3.837-1.338.948-.073 1.985-.114 3.083-.158.675-.027 1.373-.055 2.052-.087 3.214-.17 11.61-2.165 15.531-3.53 2.028-.706 5.102-.546 8.075-.391 2.768.145 5.381.281 6.862-.295 5.353-2.083 22.844-12.963 23.02-13.073a.166.166 0 0 1 .12-.01.166.166 0 0 1 .118.192.17.17 0 0 1-.064.102c-.174.11-17.694 11.005-23.073 13.1-1.548.603-4.196.464-7 .318-2.941-.154-5.981-.312-7.948.373-4.026 1.401-12.325 3.373-15.624 3.548-.68.035-1.38.063-2.056.087a92.463 92.463 0 0 0-3.07.157c-1.45.11-3.396.342-3.535 1.068-.037.196-.034.399.008.595.296 1.45 2.395 2.92 4.881 3.423 2.54.514 10.593.938 10.674.943a.161.161 0 0 1 .137.087.166.166 0 0 1 0 .162c-.387.688-4.988 2.7-11.445 5.476-3.135 1.347-6.095 2.619-7.171 3.206-.93.511-2.01 1.057-3.155 1.636-4.141 2.096-9.296 4.705-8.83 6.562.179.709.544 1.204 1.116 1.511 1.247.67 3.436.436 6.693-.723 1.037-.368 2.873-1.115 4.992-1.98 7.084-2.888 12.576-5.057 13.477-4.565.435.24.647.482.647.745 0 .405-.507.677-.953.917-.087.047-.174.092-.246.136l-.262.15c-6.692 3.832-11.381 6.692-13.2 8.046-.542.403-1.213.877-1.924 1.38-3.126 2.21-7.851 5.547-7.646 7.31.087.77.48 1.375 1.071 1.66.609.292 1.722.396 3.581-.765 1.353-.844 3.913-2.292 6.622-3.824 3.591-2.03 7.662-4.333 9.383-5.504 2.302-1.568 4.578-2.973 5.65-2.694a.755.755 0 0 1 .511.405c.087.174.159.316-2.755 2.678-1.692 1.37-4.029 3.193-6.289 4.956-4.152 3.237-8.446 6.586-9.355 7.598-.513.572-.576 1.542-.139 2.163.595.845 1.941.918 3.692.2 1.77-.727 6.595-3.947 11.26-7.056 2.894-1.932 5.886-3.93 8.177-5.35 3.618-2.247 4.168-2.236 4.401-2.051.082.067.161.2.062.461-.538 1.415-3.459 3.609-6.283 5.73-2.468 1.853-5.02 3.77-5.356 4.765-.222.657-.382 1.534.118 1.983.499.448 1.801.636 5.242-.959 5.467-2.531 20.896-10.816 24.402-14.004 1.551-1.41 3.316-3.277 5.024-5.084 2.135-2.26 4.344-4.597 6.133-6.033 2.606-2.09 18.046-8.581 20.47-9.32a.167.167 0 0 1 .202.112.163.163 0 0 1-.011.125.165.165 0 0 1-.094.082c-2.413.737-17.774 7.188-20.358 9.263-1.771 1.421-3.971 3.746-6.099 6-1.713 1.812-3.483 3.685-5.042 5.103-3.531 3.208-19.006 11.523-24.487 14.06-2.895 1.34-4.781 1.643-5.605.903-.503-.452-.576-1.26-.211-2.34.369-1.092 2.847-2.953 5.471-4.925 2.787-2.09 5.668-4.256 6.172-5.58a.44.44 0 0 0 .024-.088c-.174-.031-.925.161-4.111 2.145-2.27 1.413-5.211 3.376-8.056 5.275-4.894 3.267-9.518 6.353-11.318 7.091-.923.378-1.652.516-2.227.516Z"/><path fill="#120600" d="M197.459 29.202a22.518 22.518 0 0 1-4.857-.571c-4.054-.898-7.836-2.677-9.652-3.532-1.401-.66-2.983-.85-3-.852a.164.164 0 0 1-.112-.063.165.165 0 0 1-.035-.124.155.155 0 0 1 .02-.063.16.16 0 0 1 .101-.08.163.163 0 0 1 .065-.004c.067.008 1.655.197 3.104.881 3.773 1.776 13.795 6.493 20.903 2.503a.169.169 0 0 1 .187.014.168.168 0 0 1-.022.28c-1.913 1.073-4.157 1.611-6.702 1.611Z"/><path fill="#FFC8B9" d="M102.049 119.498S73.614 55.095 56.438 63.472c-17.177 8.377 28.61 38.931 36.294 57.942l9.317-1.916Z"/><path fill="#FFEBD9" d="M93.032 107.723S45.06 56.213 31.58 69.761c-13.48 13.55 39.79 27.39 53.28 42.829l8.173-4.867Z"/><path fill="#FFC8B9" d="M84.37 110.725S65.729 85.865 36.852 90.95c-28.876 5.086-32.718 39.583-8.048 43.624 24.67 4.041 46.685-15.718 55.772-9.872 9.086 5.845-.204-13.977-.204-13.977Z"/><path fill="#F6D3B3" d="M21.936 119.165c.049.007.098 0 .143-.019a.27.27 0 0 0 .114-.087c.041-.054 4.161-5.36 12.719-9.227 5.026-2.27 10.576-3.607 16.498-3.975 7.409-.46 15.425.605 23.825 3.167.035.01.071.014.108.01a.269.269 0 0 0 .187-.1.273.273 0 0 0 .03-.306.278.278 0 0 0-.164-.135c-8.472-2.583-16.562-3.659-24.044-3.188-5.993.374-11.61 1.732-16.699 4.036-8.673 3.927-12.858 9.327-12.9 9.381a.278.278 0 0 0 .183.443Z"/><path fill="#120600" d="M99.104 40.73s2.952-7.385 17.979-5.59c15.026 1.796 19.285 15.124 23.174 27.535 3.889 12.41 19.4 9.34 32.634 14.276 13.234 4.937 15.029 22.358 3.364 27.001-11.664 4.643-.464 31.59-37.242 22.04-36.779-9.551-27.907-31.71-38.735-42.62C89.449 72.46 78.706 49.818 99.104 40.73Z"/><path fill="#F4A28C" d="M115.705 52.594s-.588 8.242-3.117 13.452c-.514 1.006-1.466 1.8-2.652 2.212a5.669 5.669 0 0 1-3.699-.003c-1.936-.587-3.633-1.642-4.886-3.038-1.253-1.397-2.008-3.074-2.174-4.83l-1.619-7.488c-.139-1.529.28-3.058 1.196-4.375.916-1.317 2.286-2.358 3.921-2.98 5.939-2.634 13.656 2.035 13.03 7.05Z"/><path fill="#F4A28C" d="m115.02 57.771 2.119 3.485a1.226 1.226 0 0 1-.098 1.246 1.53 1.53 0 0 1-.515.466c-.211.12-.452.195-.703.22l-3.725.127 2.922-5.544ZM124.559 73.939l3.33 1.022-2.506-22.351s33.346 32.287 18.35 41.353c-3.943 2.386-14.256.2-24.265-8.282l5.091-11.742Z"/><path fill="#F4A28C" d="M122.988 50.48s17.659 17.443 21.157 25.865l-10.267 8.402c-4.154-5.745-16.401-29.834-16.401-29.834l5.511-4.432Z"/><path fill="#4D5DB5" d="M90.736 69.288c21.055-.45 30.633 6.527 31.181 9.358 3.752 19.367 2.482 21.604-.879 25.711 0 0 .261 12.893-3.789 15.152-7.962 4.454-33.26-2.534-50.211 9.147 0-.004-6.978-58.71 23.698-59.368Z"/><path fill="#F4A28C" d="M108.45 70.71s2.837 10.073-2.501 10.43c-5.846.391-11.356-5.88-12.137-11.865 0 0 5.293 0 14.638 1.435ZM98.36 100.432a11.567 11.567 0 0 1-3.605-.967.23.23 0 0 1-.123-.32.275.275 0 0 1 .348-.112c2.79 1.225 5.398 1.292 7.758.199 1.766-.82 2.725-2.021 2.734-2.033a.282.282 0 0 1 .366-.055.217.217 0 0 1 .069.065.22.22 0 0 1 .033.183.213.213 0 0 1-.042.086c-.041.052-1.028 1.296-2.901 2.171-1.448.671-3.05.941-4.637.783Z"/><path fill="#F4A28C" d="m99.171 75.136 1.863.665c1.808.646 3.854-.234 4.546-1.955l2.574-6.393c.692-1.72-.22-3.659-2.029-4.302l-1.863-.664c-1.808-.645-3.854.234-4.547 1.955l-2.573 6.394c-.689 1.72.22 3.656 2.03 4.3Z"/><path fill="#4D5DB5" d="M108.45 70.71s9.386 1.312 16.592 3.03c0 0 .304 7.717-1.488 10.755-4.796 8.134-16.876 15.743-14.142 7.255 3.8-11.799-.962-21.04-.962-21.04Z"/><path fill="#120600" d="M115.039 45.364s-6.331 13.845-18.005 15.157c-13.354 1.507 6.379-17.21 6.379-17.21l11.626 2.053Z"/><path fill="#F4A28C" d="M105.494 57.324s-.649-1.977-2.374-1.169c-1.726.808-1.209 3.193 1.244 3.51l1.13-2.341ZM122.414 44.851a8.631 8.631 0 0 0-1.268-1.066 4.31 4.31 0 0 0-.154-.106l-.01-.012s0-.006-.007-.01c-.007-.003-.026-.03-.044-.053-.343-.414-4.798-1.606-4.624-1.389l.01.01c.037.048.061.073.061.073a4.067 4.067 0 0 0-.646.108 5.908 5.908 0 0 0-2.388 1.237c-.382.34-.655.705-.744 1.045a.815.815 0 0 0-.005.436l.008.008c-.763 1.382-.758 2.97-.758 2.97-.384.265-.871 1.579-.812 1.829.217.916 1.154.969 2.121.988h.007a4.584 4.584 0 0 0 1.721-.291c.077-.03.15-.065.221-.1 0 0-.672 3.172 2.02 4.917.263.17.539.317.827.44.131.058.266.11.407.161l7.192-.223s.025-.208.046-.57a19.086 19.086 0 0 0-.192-3.866v-.012a15.57 15.57 0 0 0-.323-1.556c-.455-1.733-1.258-3.536-2.666-4.968Z"/><path fill="#DE937F" d="m141.001 133.93 1.127 3.517a5.961 5.961 0 0 0 2.247 3.035 6.382 6.382 0 0 0 3.686 1.16h15.715a3.446 3.446 0 0 0 1.825-.619 3.24 3.24 0 0 0 1.167-1.482 3.102 3.102 0 0 0 .122-1.854 3.2 3.2 0 0 0-.962-1.612c-3.724-2.773-8.129-4.578-12.791-5.243l-12.136 3.098Z"/><path fill="#103150" d="M79.525 122.214s22.216-41.28 45.063-41.43c22.846-.15 29.629 49.718 29.629 49.718s-6.169 4.208-15.477 3.254l-11.788-18.68s-16.328 24.005-25.394 25.716c-12.195 2.303-26.436-.801-22.033-18.578Z"/><path fill="#F4A28C" d="m127.662 136.801 2.215 5.745a6.251 6.251 0 0 0 2.247 3.188 6.167 6.167 0 0 0 3.686 1.218h17.894a3.333 3.333 0 0 0 1.824-.65 3.381 3.381 0 0 0 1.167-1.556 3.415 3.415 0 0 0-.84-3.641c-3.724-2.912-10.307-4.809-14.969-5.507l-13.224 1.203Z"/><path fill="#000" fill-opacity=".29" d="M136.851 97.861c-5.396-10.467-13.217-14.82-19.626-15.754l.834 6.496 25.067 45.573 5.608-1.202c-2.064-7.331-6.342-24.365-11.883-35.113Z"/><path fill="#103150" d="M67.04 129.624c-.105-3.397.805-6.752 2.538-9.676 5.646-9.521 24.271-38.284 43.335-38.41 22.847-.15 32.686 53.442 32.686 53.442s-4.993 4.456-18.208 3.816l-12.147-25.577s-16.295 26.617-25.36 28.329c-10.481 1.979-22.473-.033-22.844-11.924Z"/><path fill="#F4A28C" d="M130.021 108.766c.987-.1 1.403-9.797 1.403-9.797-10.083 1.602-21.904.294-25.238-1.23-3.781-1.73-15.863-21.129-15.87-21.177L77.643 88.808s6.628 11.063 20.564 21.368c2.334 1.726 19.597 1.05 31.815-1.41Z"/><path fill="#4D5DB5" d="M80.017 97.688s-.522-1.155.21-3.31c1.016-2.982 4.287-7.905 13.321-14.588l-1.891-5.147-.772-5.362c-1.872-.15-21.718 3.523-16.037 22.168l5.169 6.24Z"/><path fill="#F4A28C" d="M131.112 98.32c-4.919.98-8.657 1.83-8.657 1.83l-.819 6.864 3.845 1.983c1.93.204 4.636-.14 4.636-.14s6.906-2.479 8.227-2.29c2.264.323 2.496-1.058 1.517-1.655 2.705-.214-.251-2.091-.251-2.091s2.069-.859.548-1.65c-.896-.466-5.442-.484-7.36-.464-.224-.358 1.916-.691 2.628-.733 2.102-.125 3.047-.615 2.525-1.306-.386-.501-5.055-.703-6.839-.347Z"/><path fill="#120600" d="M184.01 76.73a.171.171 0 0 1-.121-.05c-1.654-1.688-5.983-4.52-16.44-4.52-.659 0-1.323.003-1.992.008-4.888.031-9.941.063-14.344-1.518-5.002-1.794-8.4-5.466-10.389-11.223-2.421-7.012-6.028-11.836-8.628-14.647-2.812-3.042-5.075-4.443-5.098-4.456a.18.18 0 0 1-.053-.043.173.173 0 0 1-.036-.13.166.166 0 0 1 .023-.064.178.178 0 0 1 .046-.05.173.173 0 0 1 .132-.027.173.173 0 0 1 .063.028c.022.013 2.325 1.438 5.169 4.514 2.621 2.834 6.258 7.698 8.699 14.766 1.952 5.654 5.284 9.257 10.187 11.016 4.347 1.56 9.371 1.529 14.228 1.498.669-.004 1.334-.008 1.994-.008 10.58 0 14.992 2.895 16.681 4.617a.168.168 0 0 1-.12.285l-.001.005Z"/><path fill="#CE8172" d="M107.689 68.556c-1.135-.334-3.137-1.357-4.275-2.46 0 0 .255 1.882 2.94 5.953l1.335-3.493Z" opacity=".31"/><defs><filter id="a" width="222.608" height="84.155" x=".259" y="94.845" color-interpolation-filters="sRGB" filterUnits="userSpaceOnUse"><feFlood flood-opacity="0" result="BackgroundImageFix"/><feBlend in="SourceGraphic" in2="BackgroundImageFix" result="shape"/><feGaussianBlur result="effect1_foregroundBlur_118_7232" stdDeviation="9.5"/></filter></defs></svg>