<svg xmlns="http://www.w3.org/2000/svg" width="249" height="160" fill="none"><path fill="#FFC8B9" d="M48.986 17.068C23.366 27.29 4.378 53.196.631 84.56c-3.155 26.41 4.386 55.604 48.781 63.895 86.385 16.179 167.287 20.793 187.947-22.876 20.659-43.67 14.293-118.42-29.542-123.255-34.851-3.85-108.819-5.214-158.83 14.744Z" opacity=".3"/><path fill="#103150" d="M63.532 120.12s8.465 22.49 9.719 33.131H23.365s2.13-27.396 8.804-34.346l31.363 1.215Z"/><path fill="#FFC8B9" d="M222.497 102.001H39.552a3.264 3.264 0 0 0-3.266 3.262 3.263 3.263 0 0 0 3.266 3.261h182.945a3.263 3.263 0 0 0 3.266-3.261 3.264 3.264 0 0 0-3.266-3.262Z"/><path fill="#FFF0EC" d="M236.507 137.167h-82.275v17.188h82.275v-17.188Z"/><path fill="#F6D3B3" d="M221.409 128.411s-7.186-1.964-8.748-8.677c0 0 11.138-2.248 11.453 9.245l-2.705-.568Z" opacity=".58"/><path fill="#F6D3B3" d="M222.292 127.701s-5.025-7.944-.6-15.367c0 0 8.472 5.38 4.733 15.383l-4.133-.016Z" opacity=".73"/><path fill="#F6D3B3" d="M223.585 127.709s2.659-8.393 10.681-9.979c0 0 1.499 5.443-5.198 9.995l-5.483-.016Z"/><path fill="#103150" d="m218.372 127.519 1.459 9.971 9.182.04 1.349-9.963-11.99-.048Z"/><path fill="#F6D3B3" d="M205.884 132.521h-37.635v5.001h37.635v-5.001Z"/><path fill="#FFC8B9" d="M209.268 127.519h-37.635v5.002h37.635v-5.002Z" opacity=".55"/><path fill="#FFF0EC" d="M221.724 3.729H43.591V102h178.133V3.729Z"/><path fill="#FFC8B9" d="M157.443 22.503H76.54v2.879h80.903v-2.88ZM197.034 22.503h-35.371v2.879h35.371v-2.88ZM107.802 33.026H79.569v2.879h28.233v-2.88ZM185.793 33.026h-73.779v2.879h73.779v-2.88ZM138.944 43.556H86.708v2.88h52.236v-2.88ZM197.034 43.556h-54.839v2.88h54.839v-2.88ZM123.696 54.08H76.54v2.879h47.156v-2.88ZM180.484 54.08H127.27v2.879h53.214v-2.88ZM163.611 64.602h-63.272v2.88h63.272v-2.88ZM97.09 64.602H78.267v2.88h18.821v-2.88ZM189.256 64.602h-20.778v2.88h20.778v-2.88ZM82.59 75.126v2.879h65.442v-2.793h2.926v2.793h46.068v-2.88H82.591Z"/><path fill="#F4A28C" d="M42.574 66.52c6.31-7.763 18.82-6.311 22.923 2.792a25.81 25.81 0 0 1 2.043 9.6c.852 19.76 11.043 30.543 20.423 27.135 9.379-3.407 13.907-19.925 13.907-19.925s7.659-5.459 9.363 0c1.704 5.458-5.395 5.522-5.395 5.522s-9.096 53.45-48.797 19.255c-25.077-21.654-20.92-36.405-14.467-44.38Z"/><path fill="#000" d="M42.574 66.52c6.31-7.763 18.82-6.311 22.923 2.792a25.81 25.81 0 0 1 2.043 9.6c.852 19.76 11.043 30.543 20.423 27.135 9.379-3.407 13.907-19.925 13.907-19.925s7.659-5.459 9.363 0c1.704 5.458-5.395 5.522-5.395 5.522s-9.096 53.45-48.797 19.255c-25.077-21.654-20.92-36.405-14.467-44.38Z" opacity=".08"/><path fill="#F4A28C" d="M53.53 40.338s1.799 4.276 2.004 7.439a2.366 2.366 0 0 1-2.193 2.469 5.127 5.127 0 0 1-5.01-2.454l-2.563-3.423a4.165 4.165 0 0 1 .379-4.796c1.909-2.595 6.405-1.893 7.383.765Z"/><path fill="#F4A28C" d="m46.178 44.243-1.782 15.09 8.495 1.002-2.13-11.47-4.583-4.622ZM54.524 43.091l1.783 1.302a.79.79 0 0 1-.087 1.254l-1.578.86-.118-3.416Z"/><path fill="#CE8172" d="M50.974 49.836a5.278 5.278 0 0 1-2.303-.916s-.963 5.34 3.155 5.64l-.852-4.724Z" opacity=".31"/><path fill="#F4A28C" d="M49.499 45.095s-.584-1.688-1.814-1.144-.41 2.99 1.396 2.658l.418-1.514Z"/><path fill="#120600" d="M52.552 40.433a13.41 13.41 0 0 1-4.126 1.672s1.073 5.128-2.216 7.888c0 0-6.5-5.648-3.227-10.207 2.738-3.818 4.639-6.981 8.796-5.474a3.47 3.47 0 0 1 .773 6.12Z"/><path fill="#120600" d="M39.694 43.36a4.615 4.615 0 1 0 0-9.23 4.615 4.615 0 0 0 0 9.23Z"/><path fill="#F4A28C" d="M49.515 44.582s-.97-1.83-2.367-.907c-1.396.923-.465 3.155 1.807 3.242l.56-2.335Z"/><path fill="#4D5DB5" d="m44.395 59.333 3.771.15a26.607 26.607 0 0 1 12.464 3.66c7.888 4.63 19.776 13.655 18.143 24.998-2.438 16.755-15.225 31.979-15.225 31.979l-31.387-1.215S5.767 57.929 44.395 59.333Z"/><path fill="#000" d="M40.814 65.573S57.711 77.68 47.56 99.05C37.406 120.42 50.185 119.6 50.185 119.6l-18.024-.695-2.927-7.754 11.58-45.578Z" opacity=".08"/><path fill="#F6D3B3" d="m52.039 124.632-16.147 20.281s16.25 11.43 16.494 11.911c.245.482 15.303-21.164 15.303-21.164l-15.65-11.028Z"/><path fill="#F4A28C" d="M29.234 64.019a51.274 51.274 0 0 0-9.813 18.53c-3.44 11.571-8.756 29.186-6.878 36.356 1.34 5.112 8.677 9.135 12.715 11.833 4.891 3.21 10.973 7.888 16.731 9.071 1.801.47 3.665.648 5.522.529a5.9 5.9 0 0 0 4.583-2.777 2.68 2.68 0 0 0 .363-1.53c-.15-1.381-1.625-2.154-2.903-2.682-1.104-.45-2.563-.615-3.668-1.065a6.17 6.17 0 0 1 1.617-1.578 1.84 1.84 0 0 0 .79-1.459c-.08-.71-1.224 0-1.941.039-2.958.332-5.625 1.255-8.141-.528-1.657-1.16-3.266-2.367-4.804-3.716-2.043-1.743-7.589-6.026-6.153-9.331 1.972-4.56 22.355-31.553 21.03-40.79-1.325-9.238-9.26-18.175-19.05-10.902Z"/><path fill="#103150" d="m132.663 56.355-.86-.68-28.118 35.54.86.68 28.118-35.54Z"/><path fill="#F6D3B3" d="M173.377 98.459h23.53v1.751a1.787 1.787 0 0 1-1.79 1.791h-19.95a1.79 1.79 0 0 1-1.79-1.791v-1.751Z"/><path fill="#fff" d="M176.303 93.892h17.67a1.397 1.397 0 0 1 1.396 1.396v3.155h-20.462v-3.155a1.396 1.396 0 0 1 1.396-1.396ZM53.814 130.107l-2.217 2.69 7.85 5.695 2.13-2.784-7.763-5.601Z"/></svg>