<svg xmlns="http://www.w3.org/2000/svg" width="130" height="160" fill="none"><path fill="#FFC8B9" d="M97.502.368a26.37 26.37 0 0 0-16.51 5.58A37.327 37.327 0 0 0 71.3 17.467a37.591 37.591 0 0 0-9.602-11.658A26.307 26.307 0 0 0 45.27.001C28.4-.124 15.585 13.59 15.453 31.887 15.315 51.652 31.085 65.29 54.97 85.933c4.056 3.503 8.653 7.477 13.43 11.714a3.462 3.462 0 0 0 4.583 0c4.846-4.154 9.484-8.08 13.59-11.527 24.174-20.304 40.151-33.714 40.276-53.478C126.993 14.379 114.366.499 97.502.368Z" opacity=".45"/><path fill="#120600" d="M89.257 50.177s-15.66 13.05-4.964 20.83c10.696 7.782 16.075-9.587 16.075-9.587l-2.437-13.154-8.674 1.911Z"/><path fill="#4D5DB5" d="M65.159 63.953s9.969 2.153 19.204 11.077c9.235 8.923-26.238 26.84-19.204-11.077Z"/><path fill="#fff" d="M84.377 75.002c9.235 8.89-26.251 26.868-19.204-11.076 0 0 9.97 2.153 19.204 11.076Z" opacity=".46"/><path fill="#4D5DB5" d="m89.257 62.804 11.18.36s38.526 7.145 17.577 47.075a50.813 50.813 0 0 0-5.759 22.361H82.757l-1.288-5.331a52.408 52.408 0 0 0-9.484-20.131c-5.815-7.38-10.288-22.333 17.272-44.334Z"/><path fill="#F4A28C" d="M46.599 35.28s1.253 6.064.706 10.217a3.1 3.1 0 0 1-3.496 2.666c-2.077-.305-4.846-1.33-5.933-4.486l-2.485-5.102S33.958 35.3 37.12 32.4c3.164-2.901 8.896-.845 9.478 2.88Z"/><path fill="#F4A28C" d="m35.855 39.489-.803 20.235 11.18-.36-3.904-14.58-6.473-5.295Z"/><path fill="#120600" d="M45.083 35.715c-1.886.297-3.8.376-5.704.236a5.157 5.157 0 0 1 .692 5.614 4.195 4.195 0 0 1-4.846 2.257l-.83-7.892a6.286 6.286 0 0 1 2.505-5.947 22.016 22.016 0 0 1 2.479-1.599c2.16-1.184 5.662-.062 7.518-1.834a1.496 1.496 0 0 1 2.464.692c.637 2.354.658 6.182-2.43 7.878a6.024 6.024 0 0 1-1.848.596Z"/><path fill="#F4A28C" d="M40.7 41.344s-.325-2.36-2.076-1.966c-1.752.394-1.302 3.8 1.15 3.835l.927-1.87ZM47.194 39.135l1.987 2.16a.99.99 0 0 1-.429 1.613l-2.298.692.74-4.465Z"/><path fill="#CE8172" d="M43.318 47.941a7.345 7.345 0 0 1-3.85-1.717s.596 3.662 5.068 6.812l-1.218-5.095Z" opacity=".31"/><path fill="#F4A28C" d="M88.89 38.713s-1.253 6.05-.692 10.239a3.096 3.096 0 0 0 3.496 2.665c2.077-.304 4.846-1.329 5.933-4.486l2.471-5.144s1.433-3.28-1.73-6.175c-3.164-2.893-8.896-.823-9.478 2.901Z"/><path fill="#F4A28C" d="m99.635 42.922.803 20.235-11.18-.36 3.904-14.579 6.473-5.296Z"/><path fill="#F4A28C" d="M94.788 44.736s.326-2.354 2.077-1.96c1.751.395 1.301 3.801-1.15 3.829l-.927-1.87ZM88.295 42.562l-1.987 2.167a.99.99 0 0 0 .43 1.613l2.298.692-.741-4.472Z"/><path fill="#CE8172" d="M92.158 51.375a7.311 7.311 0 0 0 3.843-1.717s-.589 3.662-5.061 6.812l1.218-5.095Z" opacity=".31"/><path fill="#120600" d="M89.68 29.575c-3.69 1.918-4.07 7.013-.942 9.747a17.218 17.218 0 0 0 4.07 2.555c6.148 2.831-4.056 30.46 10.53 29.816 14.587-.644 11.665-7.622 6.819-14.427-4.846-6.805-5.032-17.307-6.168-22.845-.824-4.002-9.283-7.47-14.31-4.846Z"/><path fill="#4D5DB5" d="m35.052 59.724 11.18-.353s59.169-2.465 17.175 75.811H23.623s-35.264-66.916 11.43-75.458Z"/><path fill="#000" d="M31.542 75.002s5.593 8.57 1.71 22.707c-3.884 14.136-5.352 26.127 2.914 37.473H23.622s-6.528-13.541-7.034-16.615c-.505-3.073-9.76-35.361 14.954-43.565Z" opacity=".08"/><path fill="#4D5DB5" d="M14.512 69.92C7.714 75.965 1.518 85.713.667 101.282l22.955 5.068a146.32 146.32 0 0 0 7.733-26.882c1.835-9.588-9.546-16.04-16.843-9.546Z"/><path fill="#fff" d="M14.512 69.92C7.714 75.965 1.518 85.713.667 101.282l22.955 5.068a146.32 146.32 0 0 0 7.733-26.882c1.835-9.588-9.546-16.04-16.843-9.546Z" opacity=".46"/><path fill="#F4A28C" d="M3.014 101.807s-4.549 41.634 0 58.152h7.836s.596-35.452 11.298-53.943l-19.134-4.209Z"/><path fill="#103150" d="m23.609 135.182-2.43 24.79h43.994l-1.765-24.79h-39.8ZM82.023 129.568h30.398l4.209 30.404H75.148l6.875-30.404Z"/><path fill="#000" d="M66.654 90.96s-5.974-.776-5.732 4.582 7.047 15.23 1.094 18.851c-5.628 3.461-23.496 11.769-20.25 25.372a9.202 9.202 0 0 0 2.008 3.863l4.105 4.756a10.267 10.267 0 0 1 1.337 11.422l-.084.166h17.522l3.745-21.509 1.717-28.881-5.462-18.623ZM109.596 79.059s-13.153 7.816-11.665 25.524c1.489 17.709-6.978 20.526-6.978 20.526l2.534 5.815s15.687 14.746 7.906 29.076h15.23l-3.572-25.801 7.615-29.588-11.07-25.552Z" opacity=".08"/><path fill="#F4A28C" d="M67.526 95.542s-3.371 14.413 3.13 14.538c6.5.125 4.845-14.538 4.845-14.538h-7.975Z"/><path fill="#120600" d="M65.049 96.484s-.693 2.873 3.42 3.15c2.399.164 4.807.164 7.206 0 0 0 4.964-1.641 2.23-6.155-2.735-4.514-2.915.547-6.037-3.288-3.123-3.835-5.933-.928-5.213 1.862.72 2.79-3.358.692-1.606 4.43Z"/><path fill="#F4A28C" d="m74.387 107.38 1.288 9.214s2.368 3.829-2.561 4.652c-4.93.824-6.702-1.232-3.552-4.513l.817-9.353h4.008Z"/><path fill="#4D5DB5" d="M108.08 82.437c2.278-9.159 15.099-10.128 18.692-1.384 2.035 4.963 3.212 11.319 2.215 19.252a68.18 68.18 0 0 1-10.8 29.595 9.687 9.687 0 0 1-12.717 3.087L78.845 118.45l1.6-6.231 27.787 9.166s-4.963-19.668-.152-38.948Z"/><path fill="#fff" d="M108.08 82.437c2.278-9.159 15.099-10.128 18.692-1.384 2.035 4.963 3.212 11.319 2.215 19.252a68.18 68.18 0 0 1-10.8 29.595 9.687 9.687 0 0 1-12.717 3.087L78.845 118.45l1.6-6.231 27.787 9.166s-4.963-19.668-.152-38.948Z" opacity=".46"/><path fill="#F4A28C" d="M75.674 99.633s3.462.049 3.053 3.171c-.408 3.122-4.382 0-4.382 0l1.33-3.17ZM62.584 118.927c-4.037 1.869-10.094 5.538-13.036 11.769a10.025 10.025 0 0 0 1.64 10.993l7.948 8.806s-.845 4.375 1.585 4.742c2.43.367 1.669-6.59 1.669-6.59l-5.746-9.138a2.866 2.866 0 0 1-.303-2.429 2.864 2.864 0 0 1 1.687-1.774c4.03-1.536 10.073-5.24 9.388-13.534a3.465 3.465 0 0 0-3.239-3.128 3.461 3.461 0 0 0-1.594.283Z"/><path fill="#103150" d="m60.708 147.311-1.613 12.661h27.532l-2.825-11.554-23.094-1.107Z"/><path fill="#CE8172" d="M70.143 110.094s1.71.076 3.974-1.786c0 0-.076 3.551-4.21 4.451l.236-2.665Z" opacity=".31"/><path fill="#4D5DB5" d="M75.674 116.594s10.475-.207 11.43 10.094c.955 10.301-3.302 21.73-3.302 21.73l-23.095-1.107s-10.98-27.74 8.855-30.578l6.112-.139Z"/><path fill="#000" d="M76.56 122.299s-.892 5.143 1.018 9.691a21.463 21.463 0 0 1 .949 13.05l-.769 3.399-2.61 11.554H86.62l-1.883-6.923 1.107-11.907s1.232-5.358 1.094-6.327c-.139-.969-10.377-12.537-10.377-12.537Z" opacity=".08"/><path fill="#F4A28C" d="M81.483 118.076c3.551 1.647 8.674 4.707 11.852 9.636a11.465 11.465 0 0 1-1.177 13.887l-7.255 8.031s.851 4.375-1.579 4.742c-2.43.367-1.703-6.563-1.703-6.563l5.435-8.626a3.363 3.363 0 0 0-1.565-4.901c-4.008-1.641-9.567-5.372-8.91-13.347a3.46 3.46 0 0 1 4.902-2.859ZM80.057 113.576s-3.42-2.949-5.712-1.488c-2.29 1.46-2.145 3.994 1.33 4.506l3.461.513.92-3.531ZM116.63 71.693s12.461 3.648 7.615 9.242c-4.846 5.594-11.319-5.109-7.615-9.242Z"/></svg>