<svg xmlns="http://www.w3.org/2000/svg" width="187" height="160" fill="none"><path fill="#FFF0EC" d="M35.897 32.76C22.252 43.451 14.183 63.074 15.446 83.566c.657 10.474 3.64 20.645 11.685 26.103 21.555 14.622 115.492 14.514 128.298-11.04 13.188-26.32 8.657-62.966-21.332-78.395C108.109 6.91 71.149 5.15 35.897 32.76Z" opacity=".3"/><path fill="#F4A28C" d="m127.754 75.091 14.286-.725s2.343-2.132 4.326-2.132c1.982 0 2.708 4.698-2.886 5.418 0 0-8.309 6.857-21.143 4.337-12.834-2.52-10.309-9.406 5.417-6.898Z"/><path fill="#FFF0EC" d="M95.274 160c38.834 0 70.314-4.393 70.314-9.811 0-5.419-31.48-9.812-70.314-9.812-38.834 0-70.314 4.393-70.314 9.812 0 5.418 31.48 9.811 70.314 9.811Z" opacity=".45"/><path fill="#F4A28C" d="m69.691 98.714 8.978 49.549 3.377.291.84-48.691-13.195-1.149ZM84.994 102.971l40.069 30.498 2.691-2.063-32.251-36.492-10.509 8.057ZM52.371 28.909l-5.903-10.126-3.085 1.84 6.68 15.92L55.24 33.4l-2.869-4.491Z"/><path fill="#103150" d="M95.469 84.531a5.783 5.783 0 0 1-.297-7.348l2.92-3.846c9.817 16.263 32.714 13.286 32.714 13.286l1.577-15.194c-8 2.045-22.994-5.143-24.903-13.715-1.909-8.571-15.794-11.023-15.794-11.023l-4.68-2.708c-10.229-3.343-15.252 1.954-17.663 9.063 0 0-6.623 16.823-5.417 25.605 1.206 8.783 3.103 52.72 3.103 52.72l53.72-18.565-25.28-28.275Z"/><path fill="#4D5DB5" d="M78.6 147.52s-1.48 2.674-3.891 2.943c-2.412.268-2.206 3.708 1.577 2.731a21.632 21.632 0 0 0 3.428-1.183 6.328 6.328 0 0 1 3.257-.411 1.054 1.054 0 0 0 1.023-.617c.886-1.457-2.285-3.972-2.285-3.972l-3.11.509ZM124.903 133.406s2.086 2.234 1.6 4.605c-.486 2.372 2.857 3.246 3.086-.651a21.48 21.48 0 0 0-.063-3.64 6.391 6.391 0 0 1 .611-3.229 1.048 1.048 0 0 0-.268-1.142c-1.143-1.292-3.903.057-3.903.057l-1.063 4Z"/><path fill="#103150" d="M84.189 44.063s-23.663-2.789-29.555-17.034L40.468 38.646s18.092 20.063 36.435 17.64l7.285-12.223Z"/><path fill="#F4A28C" d="M91.429 35.406a14.801 14.801 0 0 0-2.235 3.274 1.2 1.2 0 0 0 .646 1.554 2.658 2.658 0 0 0 2.857-.343l1.823-1.228a2.148 2.148 0 0 0 .629-2.4c-.48-1.566-2.8-1.989-3.72-.857Z"/><path fill="#F4A28C" d="m93.823 38.897-2.166 7.812-4.583-2.378 3.64-4.56 3.109-.874Z"/><path fill="#4D5DB5" d="M87.88 43.326s-6.063-1.04-9.423-.526c-3.36.514-13.634 8.349-2.388 16.429 11.245 8.08 23.622 8.314 31.382-1.498 0 0-.571-5.142-6.285-8.068-5.715-2.926-13.286-6.337-13.286-6.337Z"/><path fill="#000" d="M90.451 44.497s-3.485 3.429.36 6.749c3.846 3.32 5.715-.309 6.858 4.514 1.142 4.823 8.68-1.143 8.68-1.143s-1.755-3.063-3.949-4.257l-11.949-5.863Z" opacity=".08"/><path fill="#F4A28C" d="M92.223 38.566s.571-.726 1.074-.252c.503.475-.308 1.52-1.143 1.057l.069-.805Z"/><path fill="#120600" d="M91.429 35.406a4.32 4.32 0 0 1 1.228 2.811c.04 1.714-3.485 7.429-.903 8.823 2.583 1.394 4.463-.263 6.206 2.857 1.743 3.12 5.88.326 6.457-2.388.577-2.715-.388-4.526-3.743-5.492-3.354-.966-2.651-5.714-2.651-5.714l-6.594-.897Z"/><path fill="#F4A28C" d="m90.229 37.006-1.086.331a.382.382 0 0 0-.189.612l.623.685.652-1.628Z"/><path fill="#CE8172" d="M90.24 40.389a3.64 3.64 0 0 0 1.823.091s-.794 1.343-2.903 1.24l1.08-1.331Z" opacity=".31"/><path fill="#103150" d="m87.577 30.52 10.166-1.206 6.834 7.732-9.303 2.44-3.846-4.08-3.851-4.886Z"/><path stroke="#103150" stroke-miterlimit="10" d="M103.005 37.006s-.662 4.811 4.446 4.72c5.109-.092 6.857 3.697 6.857 3.697"/><path fill="#4D5DB5" d="M114.171 46.394a1.492 1.492 0 1 0 0-2.983 1.492 1.492 0 0 0 0 2.983Z"/><path fill="#F6D3B3" d="M48.745 7.1 31.9 18.97l2.308 3.274 16.844-11.869-2.307-3.274Z"/><path fill="#103150" d="m39.92 12.171 5.343 3.503-2.794 1.977-5.012-3.742 2.463-1.738Z"/><path fill="#4D5DB5" d="m66.652 123.686 47.634-18.126 6.463 7.223L67 131.383l-.348-7.697Z"/><path fill="#000" d="M110.017 116.497S85.977 93.4 87.577 81.126c1.6-12.275 8.966-15.892 13.229-12.92 4.262 2.971 5.994 12.36 30.52 13.348l-.52 5.069s-22.549 2.943-32.715-13.286l-2.92 3.846a5.863 5.863 0 0 0 .297 7.348l25.28 28.275-10.731 3.691Z" opacity=".08"/><path fill="#F4A28C" d="M46.469 18.783s-.669-4-3.086-5.257c-2.417-1.257-5.097 2.857 0 7.097l3.086-1.84Z"/><path fill="#FFC8B9" d="M175.486 16.931a2.257 2.257 0 1 0 0-4.514 2.257 2.257 0 0 0 0 4.514ZM136.234 46.754a2.257 2.257 0 1 0 0-4.513 2.257 2.257 0 0 0 0 4.513ZM46.469 101.023a2.257 2.257 0 1 0-.001-4.515 2.257 2.257 0 0 0 0 4.515ZM2.257 84.48a2.257 2.257 0 1 0 0-4.514 2.257 2.257 0 0 0 0 4.514ZM162.434 132.263a2.258 2.258 0 1 0 0-4.516 2.258 2.258 0 0 0 0 4.516Z"/><path fill="#FFC8B9" d="M7.96 14.12a2.257 2.257 0 1 0 0-4.514 2.257 2.257 0 0 0 0 4.514ZM93.823 4.514a2.257 2.257 0 1 0 0-4.514 2.257 2.257 0 0 0 0 4.514ZM40.469 59.114a2.257 2.257 0 1 0 0-4.514 2.257 2.257 0 0 0 0 4.514ZM20.96 135.583a2.257 2.257 0 1 0 0-4.515 2.257 2.257 0 0 0 0 4.515ZM184.543 74.48a2.257 2.257 0 1 0 0-4.515 2.257 2.257 0 0 0 0 4.515Z" opacity=".36"/></svg>