<svg xmlns="http://www.w3.org/2000/svg" width="234" height="160" fill="none"><path fill="#4D5DB5" d="M150.637 29.485s-11.085.385-16.104 19.955c-3.296 12.814-46.204 14.263-46.204 14.263v4.663H134.4a19.216 19.216 0 0 0 15.727-7.93 16.877 16.877 0 0 0 1.56-2.675c3.044-6.614 9.445-24.736-1.05-28.276Z"/><path fill="#000" d="M150.637 29.485s-11.085.385-16.104 19.955c-3.296 12.814-46.204 14.263-46.204 14.263v4.663H134.4a19.216 19.216 0 0 0 15.727-7.93 16.877 16.877 0 0 0 1.56-2.675c3.044-6.614 9.445-24.736-1.05-28.276Z" opacity=".08"/><path fill="#E6E6E6" d="M116.76 160c64.346 0 116.51-6.323 116.51-14.123 0-7.8-52.164-14.123-116.51-14.123-64.347 0-116.51 6.323-116.51 14.123 0 7.8 52.163 14.123 116.51 14.123Z" opacity=".45"/><path fill="#4D5DB5" d="M140.542 143.187s-.503 2.631-2.72 3.178c-2.217.547-2.461 2.83-.347 3.089 2.114.259 6.91-3.171 6.91-3.171l-.835-4.086-3.008.99ZM159.543 143.187s-.503 2.631-2.72 3.178c-2.217.547-2.461 2.83-.348 3.089 2.114.259 6.911-3.171 6.911-3.171l-.836-4.086-3.007.99Z"/><path fill="#F6D3B3" d="M66.438 54.598 63.8 67.376h14.78l-2.01-14.685-10.132 1.907Z"/><path fill="#FFF0EC" d="M98.572 13.36H39.944v39.819h58.628v-39.82Z"/><path fill="#FFEBD9" d="M98.572 49.757H39.944v7.538h58.628v-7.538Z"/><path fill="#F6D3B3" d="M187.442 72.919H33.255v67.659h154.187v-67.66Z"/><path fill="#FFEBD9" d="M187.442 68.381H33.255v10.613h154.187V68.38Z"/><path fill="#F6D3B3" d="M179.467 108.112h-6.533v35.215h6.533v-35.215Z"/><path fill="#000" d="M179.467 108.112h-6.533v35.215h6.533v-35.215Z" opacity=".08"/><path fill="#FFEBD9" d="M41.09 78.994h-7.835v61.584h7.834V78.994Z"/><path fill="#FFF0EC" d="M73.785 78.994H41.082v61.584h32.703V78.994Z" opacity=".61"/><path fill="#E6E6E6" d="M187.308 78.994h-7.833v61.584h7.833V78.994Z"/><path fill="#000" d="m147.711 68.381-11.692-.074-13.864 21.499a38.614 38.614 0 0 0-2.218 37.883l6.297 12.889h61.097l.14-27.507.488-41.793-40.248-2.897Z" opacity=".08"/><path fill="#F6D3B3" d="M71.442 55.44a2.18 2.18 0 1 0 0-4.36 2.18 2.18 0 0 0 0 4.36Z"/><path fill="#FFEBD9" d="M70.333 83.768H44.541v12.748h25.792V83.768ZM70.333 103.692H44.541v12.749h25.792v-12.749Z"/><path fill="#F6D3B3" d="M56.956 92.348a1.951 1.951 0 1 0 0-3.902 1.951 1.951 0 0 0 0 3.902ZM56.956 112.014a1.95 1.95 0 1 0 .001-3.901 1.95 1.95 0 0 0 0 3.901Z"/><path fill="#FFEBD9" d="M83.422 65.092H52.655v3.29h30.767v-3.29Z"/><path fill="#F6D3B3" d="M161.612 88.453s-7.228-47.941 9.608-56.167c16.835-8.225 44.017-.62 31.638 58.665l-.613 6.593a17.16 17.16 0 0 1-17.08 15.564h-34.203c-6.274 0-8.188-8.595-2.475-11.182a30.099 30.099 0 0 1 6.119-1.973 8.427 8.427 0 0 0 6.592-7.39l.414-4.11Z"/><path fill="#F4A28C" d="M152.625 6.117a24.732 24.732 0 0 0 .436 6.577 1.985 1.985 0 0 0 1.678 1.449c.26.031.523.011.776-.06a4.435 4.435 0 0 0 3.385-3.362l1.123-3.48a3.548 3.548 0 0 0-1.626-3.777c-2.261-1.575-5.72.236-5.772 2.653Z"/><path fill="#F4A28C" d="m159.336 8.245 3.739 12.438-7.006 1.567.096-9.681 3.171-4.324ZM152.581 8.637l-1.079 1.545a.645.645 0 0 0-.111.296.644.644 0 0 0 .236.565.636.636 0 0 0 .289.129l1.522.258-.857-2.793Z"/><path fill="#CE8172" d="M156.173 13.855s.901-.185 2.476-1.745c0 0 .34 2.572-2.528 4.597l.052-2.852Z" opacity=".31"/><path fill="#120600" d="M157.917 8.54a1.475 1.475 0 0 1-1.338 1.36 5.742 5.742 0 0 0-3.946 1.767c-1.737 2.114 1.205 4.723 3.525 3.318 2.321-1.404 4.686-6.651 4.686-6.651s1.411-4.227.155-6.282c-1.256-2.054-7.849-3.695-9.194.894-.864 2.92 1.922 3.43 4.043 3.43a2.068 2.068 0 0 1 2.069 2.217V8.54Z"/><path fill="#F4A28C" d="M156.528 8.415s0-1.53 1.153-1.426c1.153.103 1.153 2.306-.399 2.535l-.754-1.109Z"/><path fill="#4D5DB5" d="m154.754 22.568 6.023-1.367s37.95-4.671 33.08 31.106c-4.568 33.582-7.908 42.347-7.908 42.347l-34.203 1.19s-1.907-28.46-7.39-35.607c-5.484-7.147-16.333-28.269 10.398-37.67Z"/><path fill="#fff" d="M152.493 23.418s-2.506 34.276 8.284 49.516c0 0-.613-36.11 8.662-51.689 0-.044-8.662-2.41-16.946 2.173Z"/><path fill="#103150" d="m150.297 82.031-16.029 16.392a22.72 22.72 0 0 0-4.376 25.43l9.017 19.474 4.641-1.131-4.434-17.5a16.51 16.51 0 0 1 7.612-18.313l18.328-10.813-14.759-13.539Z"/><path fill="#103150" d="m150.297 82.031 37.632 2.217s-.059 13.303-4.538 16.363c-2.483 1.67-11.706 4.988-19.436 7.612a12.129 12.129 0 0 0-7.613 15.327l6.208 18.632-5.269 1.389-11.366-22.319a15.77 15.77 0 0 1 3.931-19.274l11.352-9.497-10.901-10.45Z"/><path fill="#4D5DB5" d="M172.764 35.19a8.87 8.87 0 0 1 13.783-7.982 20.03 20.03 0 0 1 6.504 7.066c3.244 6.009 4.915 19.348 5.75 29.688a21.233 21.233 0 0 1-10.872 20.301l-22.171 12.253-3.2-4.168 16.835-13.147a11.42 11.42 0 0 0 3.023-14.47c-3.924-7.162-8.831-18.174-9.652-29.54Z"/><path fill="#fff" d="M172.764 35.19a8.87 8.87 0 0 1 13.783-7.982 20.03 20.03 0 0 1 6.504 7.066c3.244 6.009 4.915 19.348 5.75 29.688a21.233 21.233 0 0 1-10.872 20.301l-22.171 12.253-3.2-4.168 16.835-13.147a11.42 11.42 0 0 0 3.023-14.47c-3.924-7.162-8.831-18.174-9.652-29.54Z" opacity=".19"/><path fill="#F4A28C" d="M162.551 92.348s-7.642 4.235-3.415 6.452c4.228 2.217 5.913-3.222 5.913-3.222l-2.498-3.23Z"/><path fill="#fff" d="m152.493 23.418-6.822 19.31 5.418 9.35-2.04 9.03 11.699 11.826s-9.659-8.699-8.255-49.516Z" opacity=".27"/><path fill="#103150" d="M156.144 22.095c.044-.99.687-.806 1.633-1.08.946-.273 1.929-1.322 2.742-.413 1.581 1.759-1.212 5.077-1.212 5.077h-2.594a14.806 14.806 0 0 1-.569-3.584ZM156.712 25.68h2.594s.244 20.072 1.951 31.933l-.48 15.32s-5.587-7.456-6.474-16.997c0 0 .266-18.824 2.409-30.257Z"/><path fill="#4D5DB5" d="m152.493 23.418 3.163 2.217 2.535-3.695 2.682 3.348 8.566-4.087s-10.398-4.19-16.946 2.217Z"/><path fill="#fff" d="m152.493 23.418 3.163 2.217 2.535-3.695 2.682 3.348 8.566-4.087s-10.398-4.19-16.946 2.217Z" opacity=".55"/><path fill="#fff" d="m169.439 21.2 1.433 25.535-6.703 4.027 3.954 8.315-7.346 13.857s-.451-36.332 8.662-51.733Z" opacity=".27"/><path fill="#F4A28C" d="M88.329 64.745s-7.39-1.323-6.696 3.636h6.696v-3.636Z"/><path fill="#FFEBD9" d="M68.042 123.27H46.041v17.308h22.001V123.27Z"/><path fill="#F6D3B3" d="M172.934 137.711h6.541l10.538 11.75h-26.627l9.548-11.75Z"/><path fill="#fff" d="M172.934 137.711h6.541l10.538 11.75h-26.627l9.548-11.75Z" opacity=".33"/><path fill="#FFC8B9" d="M90.347 20.602H49.78v8.876h40.566v-8.876Z"/><path fill="#F6D3B3" d="M64.125 33.27H50.726V45.27h13.4V33.27Z"/><path fill="#fff" d="M90.347 33.27H67.14v3.702h23.206v-3.703Z"/><path fill="#fff" d="M90.347 39.558H67.14v3.703h23.206v-3.703Z" opacity=".14"/></svg>