<svg xmlns="http://www.w3.org/2000/svg" width="166" height="160" fill="none"><path fill="#F6D3B3" d="M157.34 82.174h-28.086l7.736-12.964h28.086l-7.736 12.964ZM157.34 89.053h-28.086l7.736 12.964h28.086l-7.736-12.964ZM136.944 146.15H81.65v13.577h55.294V146.15Z"/><path fill="#FFEBD9" d="M141.005 132.581H91.182v13.577h49.823v-13.577Z"/><path fill="#000" d="m119.184 160-9.417-27.419H99.455l6.122 27.146 13.221.273" opacity=".08"/><path fill="#4D5DB5" d="M95.258 20.266c-.455.242-40.52 5.402-45.907 16.38-5.387 10.979 41.853 3.417 41.853 3.417l4.054-19.797Z"/><path fill="#103150" d="M18.667 159.735H5.787l22.661-62.832h12.873l-22.654 62.832ZM114.593 159.727h-12.872l-15.48-42.921-7.182-19.903h12.873l5.258 14.569 9.523 26.42 7.88 21.835Z"/><path fill="#FFF0EC" d="M119.632 86.34a59.452 59.452 0 0 1-59.438 59.446 59.443 59.443 0 0 1-58.378-70.65 59.445 59.445 0 0 1 117.816 10.136v1.069Z"/><path fill="#FFC8B9" d="M60.193 128.322c23.182 0 41.974-18.792 41.974-41.974 0-23.181-18.792-41.974-41.974-41.974-23.181 0-41.974 18.793-41.974 41.974 0 23.182 18.793 41.974 41.974 41.974Z"/><path fill="#FFF0EC" d="M60.193 111.934c14.131 0 25.586-11.455 25.586-25.586 0-14.13-11.455-25.585-25.586-25.585-14.13 0-25.586 11.455-25.586 25.585 0 14.131 11.456 25.586 25.586 25.586Z"/><path fill="#FFC8B9" d="M60.194 98.683c6.812 0 12.334-5.522 12.334-12.335 0-6.812-5.522-12.334-12.335-12.334-6.812 0-12.334 5.522-12.334 12.335 0 6.812 5.522 12.334 12.334 12.334Z"/><path fill="#000" d="M119.632 86.34c0 2.297-.134 4.592-.402 6.873-.444.023-.889.023-1.333 0-3.546 0-7.342.651-9.895 3.121-3.501 3.387.939 11.1 2.273 14.858a21.161 21.161 0 0 1 1.204 5.152 58.932 58.932 0 0 1-6.652 9.198 18.38 18.38 0 0 1-3.031.364 1.654 1.654 0 0 1-1.144-.25c-.825-.758.334-1.895 1.084-2.705 1.742-1.879 1.151-4.857.447-7.327a12161.52 12161.52 0 0 0-4.743-16.623c-.417-1.47-.962-3.099-2.31-3.788a3.629 3.629 0 0 0-4.266 1.053 6.857 6.857 0 0 0-1.417 4.417c-.069 4.107 1.833 7.956 3.03 11.888 1.197 3.932 1.455 8.66-1.303 11.706a2.23 2.23 0 0 1-1.712.909c-1.243-.091-1.652-1.697-1.66-2.94 0-3.084.387-6.19-.075-9.236-.985-6.485-5.842-12.228-5.372-18.767L66.74 89.917c-1.569-.432-3.538-1.515-3.076-3.091.379-1.265 2.038-1.516 3.364-1.516l27.434.197 13.964.099c3.788 0 7.44-.879 11.236-.364-.03.387-.03.743-.03 1.099Z" opacity=".08"/><path fill="#103150" d="M161.674 82.174H60.194v6.88h101.48v-6.88Z"/><path fill="#fff" d="M161.674 82.174H60.194v6.88h101.48v-6.88Z" opacity=".27"/><path fill="#4D5DB5" d="M88.234 116.473s-.41 2.144-2.212 2.583c-1.804.44-2 2.273-.28 2.516 1.72.242 5.629-2.576 5.629-2.576l-.682-3.326-2.455.803ZM103.721 116.473s-.409 2.144-2.213 2.583c-1.803.44-2 2.273-.28 2.516 1.72.242 5.622-2.576 5.622-2.576l-.674-3.326-2.455.803Z"/><path fill="#F4A28C" d="M98.076 4.961a20.045 20.045 0 0 0 .341 5.304 1.622 1.622 0 0 0 2 1.136 3.566 3.566 0 0 0 2.751-2.742l.916-2.834a2.882 2.882 0 0 0-1.326-3.03c-1.833-1.311-4.644.166-4.682 2.166Z"/><path fill="#F4A28C" d="m103.531 6.65 3.046 10.13-5.705 1.273.076-7.88 2.583-3.522ZM98.038 6.961l-.879 1.258a.515.515 0 0 0 .334.803l1.242.212-.697-2.273Z"/><path fill="#CE8172" d="M100.963 11.227a4.95 4.95 0 0 0 2-1.424s.28 2.09-2.053 3.735l.053-2.311Z" opacity=".31"/><path fill="#120600" d="M102.652 6.333c.099.057.203.105.311.144.289.078.588.111.886.098.215.016.43-.018.629-.098.758-.349.758-1.592.834-2.273a4.263 4.263 0 0 0-.394-2.546c-1.031-1.675-6.387-2.985-7.486.758-.697 2.371 1.569 2.795 3.296 2.788.576 0 .97.53 1.409.863.166.1.338.189.515.266Z"/><path fill="#F4A28C" d="M101.243 6.795s0-1.243.94-1.167c.939.076.939 1.879-.326 2.068l-.614-.901Z"/><path fill="#4D5DB5" d="m99.804 18.311 4.902-1.099s30.889-3.788 26.927 25.314c-3.72 27.328-6.44 34.465-6.44 34.465l-27.837.932s-1.515-23.161-6.06-28.98c-4.547-5.819-13.245-22.98 8.508-30.632Z"/><path fill="#fff" d="M97.962 19.008s-2.038 27.897 6.743 40.277c0 0-.5-29.382 7.046-42.065a20.031 20.031 0 0 0-13.789 1.788Z"/><path fill="#103150" d="M96.144 66.703 83.128 80.044a18.502 18.502 0 0 0-3.554 20.699l7.335 15.842 3.788-.916-3.637-14.244a13.45 13.45 0 0 1 6.19-14.903l14.918-8.827-12.024-10.993Z"/><path fill="#103150" d="m96.144 66.703 30.632 1.818s-.053 10.857-3.697 13.312c-2.023 1.364-9.531 4.06-15.82 6.197a9.846 9.846 0 0 0-6.197 12.47l5.061 15.154-4.289 1.129L92.576 98.6a12.88 12.88 0 0 1 3.205-15.691l9.236-7.728-8.873-8.478Z"/><path fill="#4D5DB5" d="M114.457 28.585a7.217 7.217 0 0 1 3.585-6.764 7.214 7.214 0 0 1 7.651.27 16.322 16.322 0 0 1 5.304 5.751c2.636 4.887 3.992 15.744 4.674 24.162a17.26 17.26 0 0 1-8.842 16.517l-18.054 9.97-2.599-3.394L119.874 64.4a9.296 9.296 0 0 0 2.463-11.774c-3.213-5.826-7.206-14.79-7.88-24.04Z"/><path fill="#fff" d="M114.457 28.585a7.217 7.217 0 0 1 3.585-6.764 7.214 7.214 0 0 1 7.651.27 16.322 16.322 0 0 1 5.304 5.751c2.636 4.887 3.992 15.744 4.674 24.162a17.26 17.26 0 0 1-8.842 16.517l-18.054 9.97-2.599-3.394L119.874 64.4a9.296 9.296 0 0 0 2.463-11.774c-3.213-5.826-7.206-14.79-7.88-24.04Z" opacity=".19"/><path fill="#F4A28C" d="M106.153 75.097s-6.22 3.417-2.781 5.25c3.44 1.834 4.796-2.628 4.796-2.628l-2.015-2.622Z"/><path fill="#fff" d="M97.962 19.008 92.41 34.73l4.41 7.577-1.637 7.357 9.523 9.622s-7.887-7.069-6.743-40.277Z" opacity=".27"/><path fill="#103150" d="M100.94 17.925c0-.803.553-.652 1.326-.872.773-.22 1.568-1.083 2.235-.34 1.288 1.431-.993 4.129-.993 4.129h-2.106a11.533 11.533 0 0 1-.462-2.917ZM101.402 20.872h2.106s.197 16.335 1.584 25.987l-.387 12.456a30.417 30.417 0 0 1-5.303-13.842s.25-15.327 2-24.601Z"/><path fill="#4D5DB5" d="m97.962 19.008 2.576 1.864 2.061-3.03 2.152 2.674 7.001-3.303s-8.463-3.418-13.79 1.795Z"/><path fill="#fff" d="m97.962 19.008 2.576 1.864 2.061-3.03 2.152 2.674 7.001-3.303s-8.463-3.418-13.79 1.795Z" opacity=".55"/><path fill="#fff" d="m111.752 17.22 1.167 20.782-5.455 3.25 3.22 6.767-5.978 11.266s-.364-29.548 7.046-42.065Z" opacity=".27"/><path fill="#F4A28C" d="M37.191 32.835a2 2 0 0 0 .955.917 3.546 3.546 0 0 0 4.205-.886c.287-.317.49-.7.59-1.114.395-1.705-1.568-3.349-3.196-2.925-1.425.38-3.205 2.569-2.554 4.008Z"/><path fill="#F6D3B3" d="M122.594 124.171s-6.531-1.773-7.955-7.835c0 0 10.122-2.045 10.41 8.395l-2.455-.56Z" opacity=".58"/><path fill="#F6D3B3" d="M123.419 123.519s-4.545-7.213-.553-13.964c0 0 7.698 4.895 4.281 13.979l-3.728-.015Z" opacity=".73"/><path fill="#F6D3B3" d="M124.571 123.527s2.41-7.622 9.698-9.092c0 0 1.364 4.947-4.72 9.092h-4.978Z"/><path fill="#103150" d="m119.836 123.352 1.318 9.062 8.342.03 1.227-9.046-10.887-.046Z"/></svg>