<svg xmlns="http://www.w3.org/2000/svg" width="302" height="160" fill="none"><path fill="#F6D3B3" d="M150.864 160c83.135 0 150.53-5.287 150.53-11.808 0-6.522-67.395-11.809-150.53-11.809-83.136 0-150.53 5.287-150.53 11.809 0 6.521 67.394 11.808 150.53 11.808Z" opacity=".3"/><path fill="#FFC8B9" d="M32.083 77.472s-15.428 7.444-17.438 24.482c-2.01 17.038-7.714 50.006 34.215 48.099 41.93-1.908 61.703-4.216 51.812-36.291-9.892-32.075-68.589-36.29-68.589-36.29Z"/><path fill="#000" d="M30.53 86.359a12.218 12.218 0 0 0 5.582 12.534c5.686 3.722 14.442 17.065 21.235 23.812a11.067 11.067 0 0 1 3.312 8.039 4.86 4.86 0 0 0 2.094 3.871c4.718 3.853 24.51 5.788 35.583-6.076 11.073-11.864-3.526-17.736-3.526-17.736L46.161 84.47l-15.633 1.889Z" opacity=".09"/><path fill="#F4A28C" d="M138.069 144.47a5.648 5.648 0 0 0 3.62 3.191c2.587.586 3.992 3.769-1.666 3.248-5.657-.521-8.756.372-7.946-2.736.809-3.108.446-3.573.446-3.573l5.546-.13ZM100.085 142.246a5.645 5.645 0 0 0 1.498 4.587c1.926 1.861 1.517 5.285-3.089 1.954-4.606-3.331-7.733-4.141-5.453-6.393 2.28-2.251 2.206-2.856 2.206-2.856l4.838 2.708Z"/><path fill="#103150" d="M104.998 102.959s34.588.354 34.253 41.604l-8.161 1.377s-1.563-43.549-46.526-22.807l2.345-17.159 18.089-3.015Z"/><path fill="#000" d="M104.998 102.959s34.588.354 34.253 41.604l-8.161 1.377s-1.563-43.549-46.526-22.807l2.345-17.159 18.089-3.015Z" opacity=".09"/><path fill="#FFC8B9" d="m107.744 64.966 2.996.8-2.131-2.298-.865 1.498Z"/><path fill="#F4A28C" d="M60.603 85.382s5.974 15.093 20.565 12.45c14.59-2.643 20.127-33.266 20.127-33.266s5.779-3.722 2.978-7.938c-2.801-4.215-7.333 4.867-7.333 4.867S90.66 87.28 77.055 78.924l-16.452 6.458Z"/><path fill="#000" d="M60.603 85.382s5.974 15.093 20.565 12.45c14.59-2.643 20.127-33.266 20.127-33.266s5.779-3.722 2.978-7.938c-2.801-4.215-7.333 4.867-7.333 4.867S90.66 87.28 77.055 78.924l-16.452 6.458Z" opacity=".09"/><path fill="#4D5DB5" d="m60.743 54.693 3.164.66s24.36 13.223 19.83 26.474c-4.532 13.25 5.368 25.831 5.368 25.831l-21.188 14.889s-27.683-13.754-23.542-51.57c0 .037 1.926-17.596 16.368-16.284Z"/><path fill="#E6E6E6" d="m116.747 62.166-3.992-1.92-16.404 34.116 3.992 1.919 16.404-34.115Z"/><path fill="#F4A28C" d="m59.59 38.074-4.384 15.465 8.7 1.805L63.6 43.37l-4.01-5.295Z"/><path fill="#CE8172" d="M63.776 45.993a5.852 5.852 0 0 1-2.643-2.047s-.223 2.94 2.643 6.206v-4.16Z" opacity=".31"/><path fill="#F4A28C" d="M68.596 38.53a30.463 30.463 0 0 1-1.86 7.937 2.458 2.458 0 0 1-3.267 1.229 5.444 5.444 0 0 1-3.48-4.783l-.688-4.476a4.382 4.382 0 0 1 2.726-4.29c3.117-1.48 6.95 1.452 6.57 4.383Z"/><path fill="#F4A28C" d="M62.734 41.75s.288-1.862-1.136-1.973c-1.423-.112-1.86 2.587 0 3.182l1.136-1.21ZM68.168 41.591l1.015 2.103a.781.781 0 0 1-.698 1.126h-1.917l1.6-3.229Z"/><path fill="#103150" d="m109.183 63.945-15.074-8.663-.865 1.506 15.073 8.663.866-1.506Z"/><path fill="#000" d="m72.774 114.358-4.857 8.226S50.293 114.06 45.24 90.946C40.187 67.832 56.881 76.83 56.881 76.83l15.893 37.528Z" opacity=".18"/><path fill="#103150" d="M67.917 122.584s16.33-33.294 40.478-33.164c24.147.13-7.221 53.71-7.221 53.71l-8.003-3.239s11.855-22.993 8.822-30.39c-3.034-7.398-7.584 43.66-34.076 13.083Z"/><path fill="#F4A28C" d="M53.94 56.563s7.268-3.722 10.962 3.797.782 39.696 15.763 41.371c14.981 1.675 22.584-13.958 22.584-13.958s1.237-6.588 3.303-7.658c2.066-1.07 3.862 5.816 0 9.835 0 0-6.607 24.827-27.562 25.385-20.955.558-45.726-41.78-25.05-58.772Z"/><path fill="#103150" d="M68.634 32.184s4.773 5.583-1.415 6.793c-6.187 1.21-7.444 2.289-6.857 8.551.586 6.263 3.033 12.022-5.156 15.986-8.188 3.964-1.116 10.431-2.66 18.145-1.545 7.715-8.72 13.028-17.941 7.761-9.222-5.267-14.888-18.657-5.034-26.706s22.332-9.984 22.332-22.937c0-12.953 10.338-13.623 16.73-7.593Z"/><path fill="#4D5DB5" d="m108.129 89.584-6.121-2.333-1.316 3.451 6.121 2.334 1.316-3.452Z"/><path fill="#fff" d="m108.129 89.584-6.121-2.333-1.316 3.451 6.121 2.334 1.316-3.452Z" opacity=".44"/><path fill="#FFC8B9" d="M255.578 73.77s31.607 5.34 30.141 27.39c-1.161 17.536 7.893 51.162-34.996 49.239-42.889-1.923-63.13-4.313-53.019-37.129 10.111-32.817 57.874-39.5 57.874-39.5Z"/><path fill="#000" d="M269.468 85.204a12.505 12.505 0 0 1-5.712 12.824c-5.817 3.808-14.766 17.46-21.726 24.362a11.376 11.376 0 0 0-3.389 8.226 4.969 4.969 0 0 1-2.142 3.96c-4.827 3.942-25.077 5.922-36.396-6.217-11.32-12.138 3.598-18.145 3.598-18.145l49.078-33.978c-1.695-.895 14.68 2.342 16.689 8.968Z" opacity=".09"/><path fill="#F4A28C" d="M180.97 145.848a4.718 4.718 0 0 1-1.033 1.663 3.86 3.86 0 0 1-1.541.986c-1.835.487-2.832 3.128 1.181 2.696 4.013-.433 6.217.309 5.636-2.271-.581-2.58-.31-2.966-.31-2.966l-3.933-.108ZM200.155 147.068a5.066 5.066 0 0 1-.756 1.859c-.366.546-.831.99-1.362 1.3-1.723.873-2.297 3.677 1.583 2.403 3.881-1.275 6.158-1.028 5.188-3.438-.97-2.41-.772-2.85-.772-2.85l-3.881.726Z"/><path fill="#103150" d="M204.398 111.389s-24.531.293-24.293 34.536l5.794 1.143s1.109-36.151 32.999-18.933l-1.663-14.244-12.837-2.502Z"/><path fill="#000" d="M204.398 111.389s-24.531.293-24.293 34.536l5.794 1.143s1.109-36.151 32.999-18.933l-1.663-14.244-12.837-2.502Z" opacity=".09"/><path fill="#F4A28C" d="M205.282 80.112s-8.744 5.253-11.74 2.85c-2.997-2.402-3.848-15.773-3.848-15.773l-4.105 1.066s-1.578 26.418 5.372 29.16c6.95 2.742 19.047-4.272 19.047-4.272l-4.726-13.03Z"/><path fill="#4D5DB5" d="M229.18 80.097c-2.884 6.705-9.2 15.688-22.598 17.349l-2.871-16.847s10.19-7.54 20.981-8.497a4.127 4.127 0 0 1 2.401.566c.743.433 1.375 1.09 1.831 1.902.457.813.721 1.752.765 2.723a6.303 6.303 0 0 1-.509 2.804Z"/><path fill="#fff" d="M229.18 80.097c-2.884 6.705-9.2 15.688-22.598 17.349l-2.871-16.847s10.19-7.54 20.981-8.497a4.127 4.127 0 0 1 2.401.566c.743.433 1.375 1.09 1.831 1.902.457.813.721 1.752.765 2.723a6.303 6.303 0 0 1-.509 2.804Z" opacity=".46"/><path fill="#F4A28C" d="M189.489 67.243c.205-.054.41-5.16-.118-4.688a2.96 2.96 0 0 0-.72 1.428s0-3.614-1.59-3.213c-1.591.402-2.132 4.565-1.505 7.485l3.907-.842M224.769 51.267s-3.022 12.916 2.803 13.028c5.826.111 4.343-13.028 4.343-13.028h-7.146Z"/><path fill="#120600" d="M222.548 52.111s-.621 2.575 3.064 2.823c2.15.147 4.308.147 6.458 0 0 0 4.448-1.47 1.998-5.515-2.451-4.045-2.612.49-5.41-2.947-2.798-3.437-5.316-.831-4.671 1.669.645 2.5-3.009.62-1.439 3.97Z"/><path fill="#F4A28C" d="m230.916 61.875 1.153 8.257s2.122 3.43-2.295 4.169c-4.417.738-6.005-1.104-3.182-4.045l.732-8.38h3.592ZM232.07 54.934s3.102.043 2.736 2.84c-.366 2.798-3.927 0-3.927 0l1.191-2.84Z"/><path fill="#CE8172" d="M227.113 64.307s1.533.068 3.561-1.6c0 0-.068 3.182-3.772 3.988l.211-2.388Z" opacity=".31"/><path fill="#4D5DB5" d="M244.466 80.846c-1.079-3.361-3.036-6.239-5.593-8.222-2.557-1.984-5.584-2.972-8.649-2.824l-2.343.093s-16.467-.085-17.714 17.465c-1.247 17.55 5.53 31.454 5.53 31.454l22.129.942s11.418-23.428 6.64-38.908Z"/><path fill="#000" d="M233.318 78.915s-3.155 13.023-1.98 25.645c1.175 12.622-1.914 14.839-1.914 14.839l8.422.355s2.501-5.067 3.181-7.724c.679-2.657 4.316-32.613-7.709-33.115Z" opacity=".08"/><path fill="#4D5DB5" d="M240.921 74.203c5.095 4.557 11.471 13.487 10.375 29.206l-14.678.178s-4.435-13.132-3.214-25.7c.103-.96.42-1.87.92-2.641.5-.77 1.165-1.373 1.927-1.747a4.081 4.081 0 0 1 2.416-.382c.82.124 1.598.498 2.254 1.086Z"/><path fill="#fff" d="M240.921 74.203c5.095 4.557 11.471 13.487 10.375 29.206l-14.678.178s-4.435-13.132-3.214-25.7c.103-.96.42-1.87.92-2.641.5-.77 1.165-1.373 1.927-1.747a4.081 4.081 0 0 1 2.416-.382c.82.124 1.598.498 2.254 1.086Z" opacity=".46"/><path fill="#F4A28C" d="M249.91 103.425s.376 23.258-5.352 36.637l-3.129-.549s2.587-22.262-2.587-35.949l11.068-.139Z"/><path fill="#F4A28C" d="M244.558 140.062s-1.353 7.647-4.858 4.859c-3.504-2.789 1.73-5.408 1.73-5.408l3.128.549Z"/><path fill="#103150" d="M237.595 120.411s-18.479-20.37-35.599-20.261c-17.12.108-3.96 49.706-3.96 49.706l5.656-2.688s.66-24.208 2.798-30.349c2.139-6.141 10.666 34.389 31.105 3.592Z"/><path fill="#FFC8B9" d="M113.693 31.628c8.775 0 15.888-7.08 15.888-15.814S122.468 0 113.693 0c-8.774 0-15.887 7.08-15.887 15.814s7.113 15.814 15.887 15.814Z"/><path fill="#FFF0EC" d="M106.124 18.888a2.439 2.439 0 1 0 0-4.877 2.439 2.439 0 0 0 0 4.877ZM113.829 18.888a2.438 2.438 0 1 0 0-4.875 2.438 2.438 0 0 0 0 4.875ZM121.263 18.888a2.438 2.438 0 1 0 0-4.875 2.438 2.438 0 0 0 0 4.875Z"/><path fill="#FFC8B9" d="m101.151 23.778-10.938 7.85 15.186-2.713-4.248-5.137ZM181.938 52.905c10.834 0 19.617-8.783 19.617-19.617 0-10.834-8.783-19.616-19.617-19.616-10.834 0-19.617 8.782-19.617 19.616s8.783 19.617 19.617 19.617Z"/><path fill="#FFC8B9" d="m199.181 37.194 13.505 9.739-18.757-3.36 5.252-6.379Z"/><path stroke="#FFF0EC" d="M171.186 32.869c.062-1.647.683-5.044 2.662-5.453 2.474-.511 4.357-2.897 7.438-2.215 1.965.434 3.335 1.146 4.282 1.913m-15.581 3.54c-2.568-2.216 2.627-7.669 3.861-7.669 3.822 0 2.779 2.873 4.488 5.087m-8.349 2.582c2.568 2.215 6.163 4.26 8.731 5.282 2.218.883 1.579 1.026 4.14-1.704m-12.871-3.578c2.397 7.97 2.226 9.503 5.479 11.226m8.87-9.166c1.78-.785 3.006-3.49 2.468-4.276a6.286 6.286 0 0 0-1.236-1.323m-1.232 5.599c-.924.407-1.997.297-3.05-.868-1.229-1.359-1.816-2.305-2.95-3.774m6 4.642a57.557 57.557 0 0 0-1.478 1.518m6.817-5.794c3.595 2.216 5.34 6.305 0 7.498-5.339 1.193-12.592 8.52-14.209 0-1.618-8.52-1.37-6.305 1.54-10.735 2.911-4.431 4.28-6.27 7.703-2.216 2.39 2.832 1.246 3.14.859 4.13m-7.232.957c-5.328-4.43-5.56-1.306-8.349 0-7.676 3.595 2.397 12.465 7.019 10.08 4.623-2.386 4.28-3.58 14.381-3.92 10.101-.34 3.591-6.798-1.712-10.395-2.467-1.673-1.369 0-2.871 1.364-3.832 3.479 1.502 4.391 1.502 14.484 0 3.872-.972 5.962-4.909 1.447-1.053-1.208-7.272 1.091-7.931.748m7.392-7.648c.14 7.157-8.02 6.527-2.397 10.072 6.001 3.783 12.908.152 12.638-6.153-.269-6.305 2.572-8.523-7.531-11.037m0 0c-.291.745-1.533 1.37-4.282 2.688-6.401 3.067-11.984 1.874-8.902 6.134 2.33 3.22 1.039 4.883 3.082 5.944"/></svg>