<svg xmlns="http://www.w3.org/2000/svg" width="269" height="160" fill="none"><path fill="#E6E6E6" d="M211.47 9.46c28.02 7.98 49.646 30.727 55.127 59.254 4.617 24.084-3.455 53.699-49.646 67.684-47.138 14.284-178.786 21.742-203.019-17.174C-10.301 80.307-4.82 30.171 45.457 12.158 80.702-.473 156.799-6.129 211.47 9.46Z" opacity=".3"/><path fill="#E6E6E6" d="M48.405 156.819c5.192 0 9.4-.933 9.4-2.084s-4.208-2.085-9.4-2.085-9.401.934-9.401 2.085c0 1.151 4.209 2.084 9.4 2.084Z"/><path fill="#E6E6E6" d="M234.947 160c18.503 0 33.502-2.409 33.502-5.381 0-2.973-14.999-5.382-33.502-5.382-18.502 0-33.501 2.409-33.501 5.382 0 2.972 14.999 5.381 33.501 5.381Z" opacity=".45"/><path fill="#FFF0EC" d="M227.29 4.933H18.16v122.629h209.13V4.933Z"/><path fill="#FFC8B9" d="M129.916 72.791h-12.698v39.207h12.698V72.791Z"/><path fill="#FFEBD9" d="M185.542 63.847h-12.698v48.151h12.698v-48.15ZM148.618 41.49H135.92v70.5h12.698v-70.5Z"/><path fill="#FFC8B9" d="M167.495 18.794h-12.698v93.196h12.698V18.794Z"/><path fill="#103150" d="m191.447 60.243-17.175-16.327-.564.772 17.174 16.9.565-1.345Z"/><path fill="#F4A28C" d="M233.635 46.39s-10.896-1.453-13.089 7.658c-2.192 9.11-2.491 21.733-11.261 24.258-8.77 2.525-13.595-14.99-13.595-14.99s-2.034-4.917-4.219-5.59c-2.184-.672-3.753 4.153 0 7.151 0 0 3.165 22.365 19.932 21.592 16.767-.772 22.232-23.85 22.232-40.078Z"/><path fill="#000" d="M233.635 46.39s-10.896-1.453-13.089 7.658c-2.192 9.11-2.491 21.733-11.261 24.258-8.77 2.525-13.595-14.99-13.595-14.99s-2.034-4.917-4.219-5.59c-2.184-.672-3.753 4.153 0 7.151 0 0 3.165 22.365 19.932 21.592 16.767-.772 22.232-23.85 22.232-40.078Z" opacity=".08"/><path fill="#4D5DB5" d="M233.635 46.39s-11.701-2.308-13.346 7.151a70.905 70.905 0 0 1-4.534 15.78l8.944 2.898 8.936-25.828Z"/><path fill="#fff" d="M233.635 46.39s-11.701-2.308-13.346 7.151a70.905 70.905 0 0 1-4.534 15.78l8.944 2.898 8.936-25.828Z" opacity=".46"/><path fill="#F4A28C" d="M234.15 30.537a24.366 24.366 0 0 0-1.977 6.278 1.996 1.996 0 0 0 1.034 1.957c.23.124.483.201.743.227a4.384 4.384 0 0 0 4.36-1.91l2.309-2.823a3.542 3.542 0 0 0-.149-4.102c-1.537-2.293-5.407-1.853-6.32.373Z"/><path fill="#F4A28C" d="m239.182 34.888.823 11.503h-6.37l1.91-8.156 3.637-3.347ZM233.062 33.236l-1.387.93a.561.561 0 0 0-.263.478.565.565 0 0 0 .263.477l1.171.706.216-2.591Z"/><path fill="#CE8172" d="M235.495 38.476a4.294 4.294 0 0 0 2.068-.996s.416 2.491-2.616 3.322l.548-2.326Z" opacity=".31"/><path fill="#F4A28C" d="M237.414 34.739s.556-1.412 1.586-.905c1.03.506.241 2.558-1.287 2.209l-.299-1.304Z"/><path fill="#4D5DB5" d="M233.635 46.39h7.557c13.894.44 21.958 15.871 14.583 27.647-4.102 6.553-9.002 15.389-9.326 20.662l-24.756-1.254s1.876-16.053-2.716-25.23c-.033 0-8.429-14.45 14.658-21.824Z"/><path fill="#000" d="M244.689 54.795s-3.073 6.37-3.804 17.814c-.731 11.444-18.412 5.124-18.412 5.124l-.498 11.718 25.288 1.345 2.101-7.665s6.636-11.876-4.675-28.336Z" opacity=".08"/><path fill="#F4A28C" d="M244.905 56.024a5.386 5.386 0 0 1 3.467-5.253 5.389 5.389 0 0 1 6.083 1.616 23.115 23.115 0 0 1 5.332 15.38c-.208 14.949-2.226 31.21-34.548 13.479l1.744-4.75s14.342 6.9 20.338 4.658c4.402-1.644-1.96-14.84-2.416-25.13ZM226.983 76.496s-5.398-2.558-7.69 0c-2.293 2.557 1.353 4.858 5.946 4.75l1.744-4.75Z"/><path fill="#103150" d="m233.519 28.643-1.238 3.106 5.133 1.977s.29 3.455-1.52 4.078a3.093 3.093 0 0 0 2.201-1.064 1.229 1.229 0 0 1 1.719-.108l.066.059a11.07 11.07 0 0 0 2.99-5.29c.581-3.048-2.815-3.522-2.815-3.522s-4.502-3.164-6.536.764Z"/><path fill="#103150" d="M240.054 27.88s.233-2.932 5.515-2.492c5.281.44 0 7.59 4.335 14.234 0 0-7.973-1.66-8.205-8.844l-1.645-2.899Z"/><path fill="#F6D3B3" d="M239.706 27.68a2.331 2.331 0 0 1 2.549.216c1.495.947 2.159 4.401-.191 5.589.017.008 1.968-4.692-2.358-5.805Z"/><path fill="#4D5DB5" d="M246.956 72.235h13.769s1.511-20.097-9.883-22.664c-11.394-2.566-3.886 22.664-3.886 22.664Z"/><path fill="#fff" d="M246.956 72.235h13.769s1.511-20.097-9.883-22.664c-11.394-2.566-3.886 22.664-3.886 22.664Z" opacity=".46"/><path fill="#103150" d="M256.672 92.241h-42.221v61.464h42.221V92.241Z"/><path fill="#103150" d="M259.786 87.956h-48.898v4.294h48.898v-4.294ZM229.74 77.783a1.366 1.366 0 0 0-1.498-.3c-.167.07-.318.172-.445.3l-1.661 1.66a1.372 1.372 0 0 0-.266 1.554 5.817 5.817 0 0 0-1.429 3.828v3.106h.756v-3.106a5.075 5.075 0 0 1 1.163-3.255 1.377 1.377 0 0 0 1.727-.183l1.661-1.661a1.36 1.36 0 0 0 .293-1.5 1.38 1.38 0 0 0-.301-.443ZM235.138 77.783a1.375 1.375 0 0 0-1.504-.3c-.168.07-.32.171-.448.3l-1.661 1.66a1.37 1.37 0 0 0-.266 1.554 5.816 5.816 0 0 0-1.428 3.828v3.106h.748v-3.106a5.078 5.078 0 0 1 1.17-3.255 1.381 1.381 0 0 0 1.728-.183l1.661-1.661a1.365 1.365 0 0 0 .299-1.498 1.366 1.366 0 0 0-.299-.445ZM240.536 77.783a1.381 1.381 0 0 0-1.504-.3c-.167.07-.319.171-.447.3l-1.661 1.66a1.37 1.37 0 0 0-.274 1.554 5.812 5.812 0 0 0-1.429 3.828v3.106h.756v-3.106a5.085 5.085 0 0 1 1.171-3.255 1.362 1.362 0 0 0 1.719-.183l1.661-1.661c.256-.258.4-.606.401-.97a1.383 1.383 0 0 0-.393-.973Z"/><path fill="#fff" d="M98.525 42.13H43.33v3.646h55.194V42.13ZM96.822 19.242h-53.49v7.292h53.49v-7.292ZM118.855 31.135H43.331v3.646h75.524v-3.646Z" opacity=".46"/><path fill="#F6D3B3" d="M46.943 146.355s-6.519-1.785-7.94-7.856c0 0 10.108-2.035 10.39 8.388l-2.45-.532Z" opacity=".58"/><path fill="#F6D3B3" d="M47.741 145.708s-4.551-7.201-.54-13.936c0 0 7.682 4.875 4.269 13.952l-3.729-.016Z" opacity=".73"/><path fill="#F6D3B3" d="M48.92 145.707s2.408-7.598 9.683-9.043c0 0 1.362 4.982-4.717 9.068l-4.966-.025Z"/><path fill="#103150" d="m44.186 145.541 1.32 9.044 8.33.034 1.23-9.036-10.88-.042Z"/></svg>