<svg xmlns="http://www.w3.org/2000/svg" width="67" height="67" fill="none"><path fill="#F6D3B3" fill-rule="evenodd" d="M26.624 4.858c2.443 2.444 4.793 6.328 6.5 10.515 1.727-4.498 4.223-8.737 6.827-11.34C46.083-2.1 55.13-.13 60.47 5.213c5.341 5.34 8.02 13.68 1.18 20.52-3.058 3.057-7.656 5.729-12.362 7.412 5.12 1.714 10.134 4.513 13.069 7.447 6.133 6.133 4.162 15.18-1.18 20.52-5.34 5.342-13.68 8.02-20.52 1.18-3.146-3.145-5.883-7.922-7.556-12.77-1.688 4.602-4.31 9.07-7.303 12.063-6.84 6.84-15.18 4.161-20.521-1.18-5.34-5.34-7.312-14.388-1.18-20.52 2.556-2.556 6.688-5.008 11.095-6.731-3.95-1.672-7.667-3.994-10.269-6.596-6.84-6.84-4.161-15.18 1.18-20.52 5.34-5.341 14.387-7.312 20.52-1.18ZM42.752 23.89c-5.263 5.05-13.553 5.107-18.885.132 5.05 5.262 5.107 13.553.131 18.884 5.262-5.049 13.553-5.106 18.885-.13-5.05-5.263-5.107-13.554-.131-18.886Z" clip-rule="evenodd"/></svg>