<svg xmlns="http://www.w3.org/2000/svg" width="42" height="42" fill="none"><path fill="#FFC8B9" fill-rule="evenodd" d="M20.56 1.547c0 1.496.422 5.548.484 5.548.063 0 .484-4.052.484-5.548C21.528.05 21.107 0 21.044 0c-.062 0-.483.05-.483 1.547Zm1.538 15.761c0-3.576-.916-10.213-1.051-10.213-.135 0-1.05 6.637-1.05 10.213v.178a18.147 18.147 0 0 0-.499-.518c-2.523-2.523-7.85-6.56-7.946-6.464-.095.095 3.941 5.423 6.464 7.946.464.464.868.824 1.218 1.102a13.246 13.246 0 0 0-1.926-.12c-3.576 0-10.213.916-10.213 1.05 0 .136 6.637 1.051 10.213 1.051.49 0 .916-.017 1.285-.047-.18.165-.373.35-.577.553-2.523 2.523-6.559 7.851-6.464 7.946.095.095 5.424-3.94 7.946-6.463.199-.199.378-.386.54-.563-.027.353-.042.756-.042 1.217 0 3.576.916 10.213 1.05 10.213.136 0 1.052-6.637 1.052-10.213 0-.465-.016-.871-.043-1.227.164.18.346.37.549.573 2.522 2.522 7.85 6.558 7.946 6.463.095-.095-3.941-5.423-6.464-7.946a17.722 17.722 0 0 0-.578-.553c.355.027.76.042 1.224.042 3.567 0 10.189-.913 10.189-1.048s-6.622-1.048-10.19-1.048c-.763 0-1.37.042-1.85.109.347-.276.747-.633 1.205-1.091 2.523-2.523 6.559-7.85 6.464-7.946-.096-.095-5.424 3.94-7.946 6.464-.185.185-.354.36-.507.526v-.186Zm-1.537 22.63c0-1.497.421-5.55.483-5.55.063 0 .484 4.053.484 5.55 0 1.496-.421 1.546-.484 1.546-.062 0-.483-.05-.483-1.547ZM7.095 20.485c0 .062-4.052.484-5.548.484C.05 20.969 0 20.547 0 20.485S.05 20 1.547 20c1.496 0 5.548.422 5.548.484Zm33.362.48c-1.493 0-5.536-.42-5.536-.482 0-.063 4.043-.483 5.536-.483 1.493 0 1.543.42 1.543.483 0 .061-.05.482-1.543.482Zm-9.91 9.022c-.043.044 2.518 3.2 3.574 4.256 1.056 1.055 1.389.793 1.432.75.044-.044.306-.377-.75-1.433-1.055-1.055-4.211-3.617-4.255-3.573ZM7.982 34.243c1.055-1.056 3.617-4.212 3.573-4.256-.044-.044-3.2 2.518-4.256 3.573-1.056 1.056-.794 1.389-.75 1.433.044.043.377.305 1.433-.75Zm3.573-23.74c.044-.045-2.518-3.201-3.573-4.257-1.056-1.055-1.389-.793-1.433-.75-.044.044-.306.377.75 1.433s4.212 3.617 4.256 3.573ZM34.12 6.245c-1.056 1.056-3.617 4.212-3.573 4.256.044.044 3.2-2.517 4.256-3.573 1.055-1.056.793-1.389.75-1.432-.044-.044-.377-.306-1.433.75Z" clip-rule="evenodd"/></svg>