<svg xmlns="http://www.w3.org/2000/svg" width="49" height="50" fill="none"><path fill="#FFC8B9" fill-rule="evenodd" d="M17.448 17.781c-3.493-1.896-7.37-3.426-10.789-3.426-8.552 0-8.47 21.152 0 21.152 3.394 0 7.24-1.509 10.714-3.386-1.88 3.475-3.39 7.325-3.39 10.722 0 8.47 21.151 8.552 21.151 0 0-3.4-1.513-7.254-3.396-10.732 3.478 1.882 7.332 3.396 10.733 3.396 8.47 0 8.551-21.152 0-21.152-3.37 0-7.185 1.486-10.638 3.345 1.866-3.461 3.361-7.29 3.361-10.669 0-8.47-21.152-8.551-21.152 0 0 3.407 1.52 7.268 3.406 10.75Z" clip-rule="evenodd"/></svg>