<svg xmlns="http://www.w3.org/2000/svg" width="16" height="16" fill="none"><mask id="a" fill="#fff"><path fill-rule="evenodd" d="M8.02 2.568C4.849.226 1.846-.681.607.548-.634 1.779.25 4.789 2.568 7.98.226 11.152-.681 14.155.548 15.394c1.23 1.24 4.24.356 7.431-1.962 3.173 2.342 6.176 3.249 7.415 2.02 1.24-1.23.356-4.24-1.962-7.431 2.342-3.173 3.249-6.176 2.019-7.415-1.23-1.24-4.24-.356-7.43 1.962Z" clip-rule="evenodd"/></mask><path fill="#fff" fill-rule="evenodd" d="M8.02 2.568C4.849.226 1.846-.681.607.548-.634 1.779.25 4.789 2.568 7.98.226 11.152-.681 14.155.548 15.394c1.23 1.24 4.24.356 7.431-1.962 3.173 2.342 6.176 3.249 7.415 2.02 1.24-1.23.356-4.24-1.962-7.431 2.342-3.173 3.249-6.176 2.019-7.415-1.23-1.24-4.24-.356-7.43 1.962Z" clip-rule="evenodd"/><path fill="#FFC8B9" d="m.606.549.704.71-.704-.71ZM8.02 2.568l-.594.804.59.435.591-.43-.587-.81ZM2.568 7.979l.804.594.435-.59-.43-.592-.81.588Zm-2.02 7.415-.709.705.71-.705Zm7.431-1.962.594-.805-.59-.434-.591.43.587.81Zm7.415 2.02.705.709-.705-.71ZM13.432 8.02l-.805-.594-.434.589.43.592.81-.587ZM15.451.606l-.71.704.71-.704Zm-14.14.653c.218-.218.796-.417 2.007-.077 1.148.322 2.582 1.064 4.109 2.19l1.188-1.609C6.968.548 5.315-.335 3.859-.744 2.465-1.135.92-1.174-.1-.16l1.41 1.42ZM3.376 7.39c-1.115-1.535-1.846-2.975-2.16-4.125-.33-1.214-.126-1.79.093-2.007L-.099-.161c-1.02 1.012-.993 2.556-.613 3.953.398 1.46 1.268 3.12 2.47 4.775L3.378 7.39ZM1.259 14.69c-.218-.22-.417-.797-.077-2.008.322-1.148 1.064-2.582 2.19-4.109L1.763 7.385c-1.215 1.647-2.098 3.3-2.507 4.757-.391 1.393-.43 2.937.583 3.957l1.42-1.41Zm6.133-2.067c-1.536 1.115-2.976 1.846-4.126 2.16-1.214.33-1.79.126-2.007-.093l-1.42 1.409c1.012 1.02 2.556.993 3.953.613 1.46-.398 3.12-1.268 4.775-2.47l-1.175-1.619Zm7.298 2.118c-.22.218-.797.417-2.008.077-1.148-.322-2.582-1.064-4.109-2.19l-1.188 1.609c1.647 1.215 3.3 2.098 4.757 2.507 1.393.391 2.937.43 3.957-.583l-1.41-1.42Zm-2.067-6.133c1.115 1.536 1.846 2.976 2.16 4.126.33 1.214.126 1.79-.093 2.007l1.409 1.42c1.02-1.012.994-2.556.613-3.953-.398-1.46-1.268-3.12-2.47-4.775l-1.619 1.175Zm2.118-7.298c.218.22.417.797.077 2.008-.322 1.148-1.064 2.582-2.19 4.109l1.609 1.188c1.215-1.647 2.098-3.3 2.507-4.757.391-1.393.429-2.937-.583-3.957l-1.42 1.41ZM8.608 3.377c1.536-1.115 2.976-1.846 4.126-2.16 1.214-.33 1.79-.126 2.007.093l1.42-1.409c-1.012-1.02-2.556-.993-3.953-.613-1.46.398-3.12 1.268-4.775 2.47l1.175 1.619Z" mask="url(#a)"/></svg>