<svg xmlns="http://www.w3.org/2000/svg" width="16" height="16" fill="none"><mask id="a" fill="#fff"><path fill-rule="evenodd" d="M8.02 2.568C4.849.226 1.846-.681.607.548-.634 1.779.25 4.789 2.568 7.98.226 11.152-.681 14.155.548 15.394c1.23 1.24 4.24.356 7.431-1.962 3.173 2.342 6.176 3.249 7.415 2.02 1.24-1.23.356-4.24-1.962-7.431 2.342-3.173 3.249-6.176 2.019-7.415-1.23-1.24-4.24-.356-7.43 1.962Z" clip-rule="evenodd"/></mask><path fill="#fff" fill-rule="evenodd" d="M8.02 2.568C4.849.226 1.846-.681.607.548-.634 1.779.25 4.789 2.568 7.98.226 11.152-.681 14.155.548 15.394c1.23 1.24 4.24.356 7.431-1.962 3.173 2.342 6.176 3.249 7.415 2.02 1.24-1.23.356-4.24-1.962-7.431 2.342-3.173 3.249-6.176 2.019-7.415-1.23-1.24-4.24-.356-7.43 1.962Z" clip-rule="evenodd"/><path fill="#FFC8B9" d="m.606.549.352.355L.606.549ZM8.02 2.568l-.297.402.294.218.297-.216-.294-.404ZM2.568 7.979l.402.297.218-.295-.216-.296-.404.294Zm-2.02 7.415-.354.352.355-.352Zm7.431-1.962.297-.402-.294-.218-.297.216.294.404Zm7.415 2.02.352.354-.352-.355ZM13.432 8.02l-.402-.297-.218.294.216.297.404-.294ZM15.451.606l-.355.352.355-.352ZM.958.904C1.378.488 2.196.347 3.453.7c1.225.344 2.714 1.121 4.27 2.27l.595-.804C6.7.973 5.103.125 3.723-.262 2.376-.641 1.073-.62.253.194l.705.71Zm2.014 6.781C1.835 6.12 1.07 4.625.735 3.397.392 2.137.54 1.32.958.904L.254.194c-.82.814-.852 2.115-.483 3.466C.147 5.042.983 6.647 2.163 8.273l.81-.588ZM.904 15.042c-.416-.42-.557-1.238-.204-2.495.344-1.225 1.121-2.714 2.27-4.271l-.804-.594C.972 9.3.125 10.897-.262 12.277c-.379 1.348-.358 2.65.456 3.47l.71-.705Zm6.781-2.014c-1.565 1.136-3.06 1.902-4.288 2.237-1.26.343-2.077.196-2.493-.223l-.71.704c.814.82 2.115.852 3.466.483 1.382-.376 2.987-1.212 4.613-2.392l-.588-.81Zm7.357 2.068c-.42.416-1.238.557-2.495.204-1.225-.344-2.714-1.121-4.27-2.27l-.595.804c1.617 1.194 3.215 2.041 4.595 2.428 1.348.379 2.65.357 3.47-.456l-.705-.71Zm-2.014-6.781c1.136 1.565 1.902 3.06 2.237 4.288.343 1.26.196 2.077-.223 2.493l.704.71c.82-.814.852-2.115.483-3.466-.376-1.382-1.212-2.988-2.392-4.613l-.81.588ZM15.096.958c.416.42.556 1.238.204 2.495-.345 1.225-1.121 2.714-2.27 4.27l.804.595c1.194-1.617 2.041-3.215 2.428-4.595.379-1.348.357-2.65-.456-3.47l-.71.705ZM8.315 2.972C9.88 1.835 11.375 1.07 12.603.735c1.26-.343 2.077-.196 2.493.223l.71-.704c-.814-.82-2.115-.852-3.466-.483C10.958.147 9.353.983 7.727 2.163l.588.81Z" mask="url(#a)"/></svg>