<svg xmlns="http://www.w3.org/2000/svg" width="50" height="49" fill="none"><mask id="a" fill="#fff"><path fill-rule="evenodd" d="M24.85 11.424c-1.25-3.066-2.97-5.91-4.76-7.7C15.6-.765 8.976.679 5.065 4.589c-3.91 3.91-5.872 10.017-.863 15.025 1.904 1.905 4.626 3.606 7.518 4.83-3.226 1.261-6.252 3.057-8.123 4.928-4.49 4.49-3.047 11.115.864 15.026 3.91 3.91 10.017 5.872 15.025.863 2.191-2.191 4.112-5.463 5.348-8.832 1.225 3.55 3.229 7.047 5.532 9.35 5.009 5.009 11.115 3.047 15.026-.863 3.91-3.91 5.353-10.535.863-15.025-2.149-2.15-5.82-4.199-9.569-5.454 3.446-1.232 6.813-3.188 9.051-5.427 5.008-5.008 3.047-11.115-.864-15.025C40.963.074 34.34-1.37 29.849 3.12c-1.906 1.906-3.734 5.01-4.998 8.304Z" clip-rule="evenodd"/></mask><path fill="#F6D3B3" d="m24.85 11.424-1.852.755 1.908 4.68 1.81-4.718-1.866-.717ZM11.72 24.443l.728 1.862 4.577-1.789-4.525-1.915-.78 1.842Zm13.114 11.985 1.89-.652-1.832-5.311-1.936 5.274 1.878.69Zm11.852-11.992-.673-1.883-5.44 1.946 5.478 1.834.635-1.897ZM18.676 5.14c1.539 1.539 3.133 4.124 4.322 7.04l3.704-1.51c-1.312-3.216-3.158-6.32-5.197-8.358l-2.829 2.828ZM6.48 6.002c3.427-3.427 8.755-4.305 12.197-.863l2.829-2.828c-5.54-5.54-13.46-3.531-17.854.863l2.828 2.828ZM5.616 18.2c-2.073-2.073-2.614-4.234-2.345-6.245.28-2.1 1.478-4.22 3.208-5.952L3.651 3.174c-2.18 2.18-3.92 5.067-4.345 8.25-.437 3.273.546 6.668 3.481 9.604l2.829-2.829Zm6.884 4.402c-2.723-1.152-5.207-2.724-6.884-4.402l-2.829 2.829c2.133 2.132 5.092 3.96 8.154 5.257L12.5 22.6ZM5.01 30.786c1.612-1.613 4.368-3.28 7.437-4.48l-1.456-3.726c-3.383 1.323-6.679 3.247-8.81 5.377l2.83 2.829Zm.864 12.196c-3.427-3.427-4.305-8.755-.864-12.196l-2.828-2.829c-5.539 5.539-3.53 13.46.863 17.854l2.829-2.829Zm12.197.864c-2.073 2.073-4.235 2.614-6.245 2.345-2.1-.281-4.222-1.478-5.952-3.209l-2.829 2.829c2.18 2.18 5.068 3.919 8.25 4.344 3.273.438 6.669-.545 9.604-3.48l-2.828-2.83Zm4.884-8.107c-1.164 3.172-2.949 6.171-4.884 8.107l2.828 2.828c2.447-2.446 4.503-5.991 5.812-9.557l-3.756-1.378Zm8.825 8.625c-2.038-2.037-3.904-5.248-5.056-8.588l-3.782 1.304c1.297 3.759 3.44 7.543 6.01 10.113l2.828-2.829Zm12.196-.863c-1.73 1.73-3.851 2.927-5.951 3.208-2.011.269-4.173-.272-6.246-2.345l-2.828 2.829c2.935 2.935 6.331 3.918 9.604 3.48 3.183-.425 6.07-2.164 8.25-4.344l-2.829-2.828Zm.864-12.197c3.442 3.441 2.563 8.77-.864 12.197l2.829 2.828c4.394-4.394 6.402-12.315.863-17.854l-2.828 2.829Zm-8.79-4.971c3.564 1.193 6.929 3.11 8.79 4.97l2.828-2.828c-2.436-2.436-6.414-4.618-10.348-5.935l-1.27 3.793Zm1.309-.014c3.648-1.304 7.293-3.397 9.791-5.896l-2.828-2.828c-1.979 1.979-5.066 3.798-8.31 4.958l1.347 3.766Zm9.791-5.896c2.936-2.935 3.919-6.331 3.481-9.603-.425-3.183-2.164-6.07-4.344-8.25l-2.829 2.828c1.731 1.73 2.928 3.852 3.209 5.952.268 2.01-.272 4.172-2.345 6.245l2.828 2.828ZM46.288 2.57c-4.394-4.395-12.315-6.403-17.854-.864l2.828 2.828c3.442-3.441 8.77-2.563 12.197.864l2.829-2.828Zm-17.854-.864c-2.169 2.169-4.125 5.547-5.451 9.001l3.734 1.434c1.203-3.134 2.902-5.963 4.545-7.607l-2.828-2.828Z" mask="url(#a)"/></svg>