<svg xmlns="http://www.w3.org/2000/svg" width="31" height="24" fill="none"><path fill="#FFC8B9" d="M.923 18.263a13.76 13.76 0 0 1-.249-2.698c0-1.383.166-2.836.498-4.358.36-1.522.913-2.974 1.66-4.358A15.676 15.676 0 0 1 5.78 3.031C6.97 1.896 8.422 1.025 10.137.416c.222-.11.47-.166.747-.166.25 0 .484.083.706.249.221.166.332.512.332 1.038v2.282c-.664.415-1.314.927-1.95 1.536A13.293 13.293 0 0 0 8.31 7.389c-.47.747-.858 1.563-1.162 2.448a8.599 8.599 0 0 0-.415 2.657.281.281 0 0 1 .207-.083h.29c.886 0 1.703.152 2.45.456.747.304 1.383.72 1.909 1.245a4.896 4.896 0 0 1 1.204 1.826c.304.72.456 1.495.456 2.325 0 .802-.152 1.55-.457 2.24a5.494 5.494 0 0 1-1.203 1.786 5.709 5.709 0 0 1-1.91 1.245 6.999 6.999 0 0 1-2.448.415c-.913 0-1.73-.139-2.449-.415a5.814 5.814 0 0 1-1.867-1.245 7.37 7.37 0 0 1-1.246-1.785 9.698 9.698 0 0 1-.747-2.241Zm17.349 0c-.166-.83-.25-1.73-.25-2.698 0-1.383.167-2.836.499-4.358.36-1.522.913-2.974 1.66-4.358a15.677 15.677 0 0 1 2.947-3.818c1.19-1.135 2.628-2.006 4.316-2.615.111-.055.222-.097.332-.124.139-.028.29-.042.457-.042.249 0 .47.083.664.249.221.166.332.512.332 1.038v2.282c-.664.415-1.3.927-1.91 1.536a13.291 13.291 0 0 0-1.66 2.034c-.47.747-.857 1.563-1.161 2.448a8.599 8.599 0 0 0-.416 2.657.281.281 0 0 1 .208-.083h.29c.886 0 1.702.152 2.45.456.746.304 1.383.72 1.909 1.245a4.897 4.897 0 0 1 1.203 1.826c.305.72.457 1.495.457 2.325 0 .802-.152 1.55-.457 2.24a5.495 5.495 0 0 1-1.203 1.786 5.709 5.709 0 0 1-1.91 1.245 6.999 6.999 0 0 1-2.448.415c-.913 0-1.73-.139-2.45-.415a5.813 5.813 0 0 1-1.867-1.245 7.37 7.37 0 0 1-1.245-1.785 9.698 9.698 0 0 1-.747-2.241Z"/></svg>